<svg width="30" height="30" viewBox="0 0 30 30" fill="none" xmlns="http://www.w3.org/2000/svg">
<path fill-rule="evenodd" clip-rule="evenodd" d="M27.5 9.58238L27.5 20.4186C27.5 24.6732 24.4634 27.4999 20.105 27.4999L9.895 27.4999C5.5412 27.4999 2.5 24.6648 2.5 20.4186L2.5 9.58238C2.5 5.32765 5.53688 2.49988 9.895 2.49988L20.105 2.49988C24.4631 2.49988 27.5 5.32765 27.5 9.58238ZM25.625 20.4186L25.625 9.58238C25.625 6.39425 23.4563 4.37488 20.105 4.37488L9.895 4.37488C6.5437 4.37488 4.375 6.39425 4.375 9.58238L4.375 20.4186C4.375 23.5987 6.54848 25.6249 9.895 25.6249L20.105 25.6249C23.4567 25.6249 25.625 23.6064 25.625 20.4186ZM21.045 14.9999C21.045 15.4745 20.6923 15.8667 20.2347 15.9288L20.1075 15.9374L12.1635 15.9374L15.2586 19.0206C15.5922 19.3527 15.6235 19.8734 15.352 20.241L15.2614 20.3464C14.9293 20.6799 14.4086 20.7113 14.041 20.4397L13.9356 20.3492L9.23063 15.6642C8.89608 15.3311 8.86567 14.8084 9.13939 14.4408L9.14277 14.4369C9.16895 14.4021 9.1975 14.3692 9.22817 14.3384L9.23063 14.3356L13.9356 9.65055C14.3025 9.28522 14.8961 9.28648 15.2614 9.65338C15.5936 9.98692 15.6227 10.5078 15.3496 10.8742L15.2586 10.9792L12.1618 14.0624L20.1075 14.0624C20.6253 14.0624 21.045 14.4821 21.045 14.9999Z" fill="#C1C1C1"/>
</svg>
