<svg width="20" height="22" viewBox="0 0 20 22" fill="none" xmlns="http://www.w3.org/2000/svg">
<path d="M11.3281 17.9316V18.3648C11.3281 18.7095 11.1881 19.0401 10.9389 19.2838C10.6897 19.5275 10.3517 19.6644 9.99932 19.6644C9.64692 19.6644 9.30896 19.5275 9.05977 19.2838C8.81059 19.0401 8.6706 18.7095 8.6706 18.3648V17.9316H6.45605V18.3648C6.45605 19.284 6.82936 20.1655 7.49385 20.8154C8.15835 21.4653 9.05959 21.8304 9.99932 21.8304C10.9391 21.8304 11.8403 21.4653 12.5048 20.8154C13.1693 20.1655 13.5426 19.284 13.5426 18.3648V17.9316H11.3281Z" fill="#F1C218"/>
<path d="M18.5747 15.7676C18.2975 15.7676 18.0316 15.6599 17.8356 15.4682C17.6396 15.2765 17.5294 15.0164 17.5294 14.7453V9.70286C17.5278 7.93849 16.8786 6.23333 15.7 4.89766C14.5213 3.56199 12.8916 2.68459 11.1073 2.42513V1.31614C11.1143 1.03962 11.0171 0.77023 10.8341 0.559315C10.6512 0.3484 10.3953 0.210714 10.1152 0.172501C9.96037 0.156668 9.80391 0.172927 9.65598 0.220217C9.50805 0.267507 9.37198 0.344766 9.25663 0.446955C9.14129 0.549144 9.04926 0.673967 8.98656 0.813284C8.92386 0.9526 8.89188 1.10328 8.89273 1.2555V2.42513C7.10843 2.68459 5.47866 3.56199 4.30001 4.89766C3.12136 6.23333 2.47216 7.93849 2.47055 9.70286V14.7453C2.47055 15.0164 2.36042 15.2765 2.1644 15.4682C1.96837 15.6599 1.70251 15.7676 1.42529 15.7676C1.14257 15.7607 0.867135 15.8558 0.651492 16.0348C0.435849 16.2137 0.295076 16.464 0.256006 16.738C0.239818 16.8894 0.256442 17.0424 0.304792 17.1871C0.353142 17.3318 0.432133 17.4649 0.536613 17.5777C0.641093 17.6905 0.768714 17.7805 0.911154 17.8418C1.05359 17.9032 1.20765 17.9344 1.36328 17.9336H18.6367C18.7923 17.9344 18.9464 17.9032 19.0888 17.8418C19.2313 17.7805 19.3589 17.6905 19.4634 17.5777C19.5679 17.4649 19.6469 17.3318 19.6952 17.1871C19.7436 17.0424 19.7602 16.8894 19.744 16.738C19.7049 16.464 19.5641 16.2137 19.3485 16.0348C19.1329 15.8558 18.8574 15.7607 18.5747 15.7676ZM4.68509 15.7676V9.85448C4.67072 8.54304 5.15337 7.27286 6.03995 6.28893C6.92652 5.30499 8.15422 4.67702 9.48623 4.52614C10.2243 4.45603 10.9691 4.53775 11.673 4.76604C12.3768 4.99433 13.024 5.36414 13.573 5.8517C14.1219 6.33926 14.5605 6.93377 14.8605 7.59703C15.1605 8.26028 15.3153 8.9776 15.3149 9.70286V15.7676H4.68509Z" fill="white"/>
</svg>
