<svg width="18" height="18" viewBox="0 0 18 18" fill="none" xmlns="http://www.w3.org/2000/svg">
<path fill-rule="evenodd" clip-rule="evenodd" d="M4.39236 0.668064L4.41454 0.669496C4.85112 0.705681 5.2303 0.922639 5.57643 1.26083C6.23422 1.90328 7.64671 3.77801 7.75335 4.28821C7.87137 4.85739 7.74518 5.22706 7.369 5.88099L7.27782 6.04216C7.10519 6.35745 7.0788 6.48763 7.13225 6.6367C7.95361 8.64689 9.35523 10.0483 11.3425 10.8599C11.5307 10.9281 11.6728 10.889 12.0705 10.6609L12.278 10.5435C12.8371 10.2368 13.1915 10.1399 13.7141 10.2487C14.2225 10.3553 16.0983 11.7686 16.7398 12.4256C17.0775 12.7714 17.2949 13.1513 17.3328 13.6166C17.3727 14.7476 15.9927 16.3401 15.1508 16.8189C14.1934 17.5038 12.9784 17.4924 11.6161 16.8584C8.05373 15.376 2.60449 9.96157 1.15231 6.40356L1.06538 6.20454C0.513969 4.88661 0.525917 3.74801 1.15781 2.88961C1.73439 1.93476 3.28895 0.617033 4.39236 0.668064ZM4.3251 1.88659L4.25164 1.89036C3.68531 1.9656 2.54961 2.94335 2.17139 3.56524L2.10606 3.66247C1.78024 4.19332 1.818 4.92235 2.27162 5.92053L2.35831 6.12347C3.82125 9.4068 8.88652 14.4018 12.1074 15.7426L12.2848 15.8215C13.2167 16.2165 13.9221 16.1989 14.4932 15.794L14.5354 15.7668C14.7122 15.644 15.1197 15.2737 15.4336 14.9115C15.8745 14.4027 16.1242 13.9366 16.1162 13.6884C16.1074 13.5823 16.0255 13.4392 15.8677 13.2776C15.3908 12.7893 13.6566 11.4825 13.4649 11.4424C13.2837 11.4046 13.1349 11.4553 12.7281 11.6894L12.5234 11.8043C11.9241 12.1275 11.5016 12.2144 10.9047 11.9977C8.59134 11.0535 6.94902 9.41143 5.99482 7.0748C5.7688 6.45004 5.89047 6.00801 6.28351 5.32298L6.37716 5.15822C6.55571 4.83583 6.5935 4.69905 6.55985 4.53679C6.51957 4.34407 5.21367 2.6108 4.72465 2.13319C4.56272 1.97497 4.42044 1.89356 4.31395 1.88474L4.3251 1.88659Z" fill="white"/>
</svg>
