<svg width="21" height="21" viewBox="0 0 21 21" fill="none" xmlns="http://www.w3.org/2000/svg">
<path d="M20.6815 19.6812C20.4756 19.8844 20.1981 19.9982 19.9089 19.9982C19.6197 19.9982 19.3421 19.8844 19.1363 19.6812L13.6191 14.164L12.8465 13.3914C12.7448 13.29 12.6642 13.1696 12.6092 13.037C12.5542 12.9045 12.5259 12.7623 12.5259 12.6188C12.5259 12.4753 12.5542 12.3332 12.6092 12.2006C12.6642 12.068 12.7448 11.9476 12.8465 11.8462C12.9478 11.7446 13.0683 11.664 13.2008 11.609C13.3334 11.554 13.4755 11.5256 13.6191 11.5256C13.7626 11.5256 13.9047 11.554 14.0373 11.609C14.1699 11.664 14.2903 11.7446 14.3916 11.8462L15.1642 12.6188L20.6815 18.1361C20.8846 18.3419 20.9985 18.6195 20.9985 18.9086C20.9985 19.1978 20.8846 19.4754 20.6815 19.6812Z" fill="#F1C218"/>
<path d="M20.6813 0.318541C20.4754 0.115421 20.1979 0.00153509 19.9087 0.00153509C19.6195 0.00153509 19.3419 0.115421 19.1361 0.318541L10.9999 8.45473L2.86373 0.318541C2.65844 0.114367 2.38068 -0.000244141 2.09114 -0.000244141C1.8016 -0.000244141 1.52384 0.114367 1.31855 0.318541C1.11543 0.524386 1.00155 0.801941 1.00155 1.09113C1.00155 1.38032 1.11543 1.65787 1.31855 1.86372L9.45474 9.9999L1.31855 18.1361C1.11365 18.341 0.998535 18.6189 0.998535 18.9087C0.998535 19.1985 1.11365 19.4764 1.31855 19.6813C1.52345 19.8862 1.80136 20.0013 2.09114 20.0013C2.38092 20.0013 2.65883 19.8862 2.86373 19.6813L20.6813 1.86372C20.8854 1.65843 21.0001 1.38067 21.0001 1.09113C21.0001 0.801594 20.8854 0.52383 20.6813 0.318541Z" fill="white"/>
</svg>
