<svg width="24" height="24" viewBox="0 0 24 24" fill="none" xmlns="http://www.w3.org/2000/svg">
<path d="M13.2692 2H10.7308C10.3941 2 10.0713 2.11589 9.83329 2.32218C9.59526 2.52847 9.46154 2.80826 9.46154 3.1V4H4.15385C3.84783 4 3.55434 4.10536 3.33795 4.29289C3.12157 4.48043 3 4.73478 3 5C3 5.26522 3.12157 5.51957 3.33795 5.70711C3.55434 5.89464 3.84783 6 4.15385 6H17.3077V19.3C17.3065 19.4853 17.221 19.6628 17.0698 19.7938C16.9186 19.9249 16.7138 19.999 16.5 20H7.5C7.28616 19.999 7.08142 19.9249 6.93021 19.7938C6.779 19.6628 6.69352 19.4853 6.69231 19.3V9C6.69231 8.73478 6.57074 8.48043 6.35435 8.29289C6.13797 8.10536 5.84448 8 5.53846 8C5.23244 8 4.93896 8.10536 4.72257 8.29289C4.50618 8.48043 4.38462 8.73478 4.38462 9V19.3C4.38462 20.0161 4.71284 20.7028 5.29709 21.2092C5.88134 21.7155 6.67375 22 7.5 22H16.5C17.3263 22 18.1187 21.7155 18.7029 21.2092C19.2872 20.7028 19.6154 20.0161 19.6154 19.3V6H19.8462C20.1522 6 20.4457 5.89464 20.662 5.70711C20.8784 5.51957 21 5.26522 21 5C21 4.73478 20.8784 4.48043 20.662 4.29289C20.4457 4.10536 20.1522 4 19.8462 4H14.5385V3.1C14.5385 2.80826 14.4047 2.52847 14.1667 2.32218C13.9287 2.11589 13.6059 2 13.2692 2Z" fill="#F1C217"/>
<path d="M10.1538 8C9.84783 8 9.55434 8.10536 9.33795 8.29289C9.12157 8.48043 9 8.73478 9 9V17.4C9 17.6652 9.12157 17.9196 9.33795 18.1071C9.55434 18.2946 9.84783 18.4 10.1538 18.4C10.4599 18.4 10.7534 18.2946 10.9697 18.1071C11.1861 17.9196 11.3077 17.6652 11.3077 17.4V9C11.3077 8.73478 11.1861 8.48043 10.9697 8.29289C10.7534 8.10536 10.4599 8 10.1538 8ZM13.8462 8C13.5401 8 13.2466 8.10536 13.0303 8.29289C12.8139 8.48043 12.6923 8.73478 12.6923 9V17.4C12.6923 17.6652 12.8139 17.9196 13.0303 18.1071C13.2466 18.2946 13.5401 18.4 13.8462 18.4C14.1522 18.4 14.4457 18.2946 14.662 18.1071C14.8784 17.9196 15 17.6652 15 17.4V9C15 8.73478 14.8784 8.48043 14.662 8.29289C14.4457 8.10536 14.1522 8 13.8462 8Z" fill="white"/>
</svg>
