<svg width="15" height="18" viewBox="0 0 15 18" fill="none" xmlns="http://www.w3.org/2000/svg">
<path fill-rule="evenodd" clip-rule="evenodd" d="M4.28142 17.3334C3.93809 17.3334 3.61226 17.3067 3.30559 17.2542L3.12392 17.2201C1.14809 16.8092 -0.000244141 15.2959 -0.000244141 12.9926V5.00758C-0.000244141 4.72925 0.0164225 4.46258 0.0497559 4.20758C0.340589 1.97008 1.87809 0.666748 4.28142 0.666748H10.7189C13.3823 0.666748 14.9748 2.26675 14.9998 4.94341V5.00758V12.9926C14.9998 15.7067 13.4031 17.3334 10.7189 17.3334H4.28142ZM4.28142 1.88091C2.23476 1.88091 1.19726 2.93341 1.19726 5.00758V12.9926C1.19726 15.0667 2.23476 16.1192 4.28142 16.1192H10.7114C12.7573 16.1192 13.7881 15.0667 13.7881 12.9926V5.00758C13.7881 2.93341 12.7573 1.88091 10.7114 1.88091H4.28142ZM11.0881 12.5284C11.0881 12.1951 10.8223 11.9251 10.4939 11.9251H4.48476C4.15642 11.9251 3.88976 12.1951 3.88976 12.5284C3.88976 12.8617 4.15642 13.1317 4.48476 13.1317H10.4939C10.8223 13.1317 11.0881 12.8617 11.0881 12.5284ZM10.4939 8.39258C10.7231 8.36758 10.9473 8.47758 11.0698 8.67508C11.1923 8.87425 11.1923 9.12591 11.0698 9.32508C10.9473 9.52258 10.7231 9.63258 10.4939 9.60758H4.48476C4.17976 9.57258 3.94892 9.31175 3.94892 9.00008C3.94892 8.68841 4.17976 8.42675 4.48476 8.39258H10.4939ZM7.31392 5.47591C7.31392 5.16425 7.08309 4.90258 6.77809 4.86841H4.49226C4.18642 4.90258 3.95559 5.16425 3.95559 5.47591C3.95559 5.78675 4.18642 6.04841 4.49226 6.08258H6.77809C7.08309 6.04841 7.31392 5.78675 7.31392 5.47591Z" fill="#F1C217"/>
</svg>
