<svg width="24" height="24" viewBox="0 0 24 24" fill="none" xmlns="http://www.w3.org/2000/svg">
<path d="M19.5147 4.86158L15.8497 2.2488C15.7186 2.15219 15.5676 2.0804 15.4054 2.03767C15.2433 1.99494 15.0734 1.98214 14.9057 2.00003C14.738 2.01791 14.576 2.06612 14.4292 2.1418C14.2824 2.21749 14.1537 2.31911 14.0509 2.44068L5.55176 12.2386C5.4495 12.3778 5.38056 12.535 5.3494 12.6999L4.10375 17.5458C4.04871 17.7579 4.06183 17.9798 4.14153 18.1853C4.22124 18.3908 4.36419 18.5712 4.55344 18.7052C4.74075 18.8427 4.96819 18.9275 5.20784 18.9493C5.4475 18.971 5.68894 18.9288 5.90252 18.8277L10.8041 16.6027C10.9703 16.526 11.1161 16.4173 11.2314 16.2843L19.7395 6.49457C19.8452 6.37482 19.9234 6.23704 19.9694 6.08938C20.0153 5.94172 20.0282 5.78719 20.0073 5.63493C19.9863 5.48266 19.9319 5.33577 19.8473 5.20293C19.7627 5.0701 19.6496 4.95402 19.5147 4.86158ZM9.62146 14.8595L6.78841 16.1455L7.48093 13.3531L12.4275 7.61316L14.5501 9.12776L9.62146 14.8595ZM15.9846 7.5111L13.8441 6.00875L15.2426 4.40434L17.3606 5.91894L15.9846 7.5111Z" fill="white"/>
<path d="M18.615 19.9609H5.12423C4.50333 19.9609 4 20.4179 4 20.9816C4 21.5452 4.50333 22.0022 5.12423 22.0022H18.615C19.2358 22.0022 19.7392 21.5452 19.7392 20.9816C19.7392 20.4179 19.2358 19.9609 18.615 19.9609Z" fill="#F1C217"/>
</svg>
