<svg width="14" height="14" viewBox="0 0 14 14" fill="none" xmlns="http://www.w3.org/2000/svg">
<path d="M0.809442 0.333252C0.683149 0.333252 0.562028 0.383422 0.472725 0.472725C0.383422 0.562028 0.333252 0.683149 0.333252 0.809442V4.61897C0.333252 4.74526 0.383422 4.86638 0.472725 4.95568C0.562028 5.04499 0.683149 5.09516 0.809442 5.09516C0.935736 5.09516 1.05686 5.04499 1.14616 4.95568C1.23546 4.86638 1.28563 4.74526 1.28563 4.61897V1.95897L4.28182 4.95611C4.37124 5.04553 4.49251 5.09576 4.61897 5.09576C4.74542 5.09576 4.86669 5.04553 4.95611 4.95611C5.04553 4.86669 5.09576 4.74542 5.09576 4.61897C5.09576 4.49251 5.04553 4.37124 4.95611 4.28182L1.95897 1.28563H4.61897C4.74526 1.28563 4.86638 1.23546 4.95568 1.14616C5.04499 1.05686 5.09516 0.935736 5.09516 0.809442C5.09516 0.683149 5.04499 0.562028 4.95568 0.472725C4.86638 0.383422 4.74526 0.333252 4.61897 0.333252H0.809442ZM0.809442 13.6666C0.683149 13.6666 0.562028 13.6164 0.472725 13.5271C0.383422 13.4378 0.333252 13.3167 0.333252 13.1904V9.38087C0.333252 9.25458 0.383422 9.13346 0.472725 9.04415C0.562028 8.95485 0.683149 8.90468 0.809442 8.90468C0.935736 8.90468 1.05686 8.95485 1.14616 9.04415C1.23546 9.13346 1.28563 9.25458 1.28563 9.38087V12.0409L4.28182 9.04373C4.37124 8.95431 4.49251 8.90408 4.61897 8.90408C4.74542 8.90408 4.86669 8.95431 4.95611 9.04373C5.04553 9.13314 5.09576 9.25442 5.09576 9.38087C5.09576 9.50733 5.04553 9.6286 4.95611 9.71801L1.95897 12.7142H4.61897C4.74526 12.7142 4.86638 12.7644 4.95568 12.8537C5.04499 12.943 5.09516 13.0641 5.09516 13.1904C5.09516 13.3167 5.04499 13.4378 4.95568 13.5271C4.86638 13.6164 4.74526 13.6666 4.61897 13.6666H0.809442ZM13.6666 0.809442C13.6666 0.683149 13.6164 0.562028 13.5271 0.472725C13.4378 0.383422 13.3167 0.333252 13.1904 0.333252H9.38087C9.25458 0.333252 9.13346 0.383422 9.04415 0.472725C8.95485 0.562028 8.90468 0.683149 8.90468 0.809442C8.90468 0.935736 8.95485 1.05686 9.04415 1.14616C9.13346 1.23546 9.25458 1.28563 9.38087 1.28563H12.0409L9.04373 4.28182C8.95431 4.37124 8.90408 4.49251 8.90408 4.61897C8.90408 4.74542 8.95431 4.86669 9.04373 4.95611C9.13314 5.04553 9.25442 5.09576 9.38087 5.09576C9.50733 5.09576 9.6286 5.04553 9.71801 4.95611L12.7142 1.95897V4.61897C12.7142 4.74526 12.7644 4.86638 12.8537 4.95568C12.943 5.04499 13.0641 5.09516 13.1904 5.09516C13.3167 5.09516 13.4378 5.04499 13.5271 4.95568C13.6164 4.86638 13.6666 4.74526 13.6666 4.61897V0.809442ZM13.1904 13.6666C13.3167 13.6666 13.4378 13.6164 13.5271 13.5271C13.6164 13.4378 13.6666 13.3167 13.6666 13.1904V9.38087C13.6666 9.25458 13.6164 9.13346 13.5271 9.04415C13.4378 8.95485 13.3167 8.90468 13.1904 8.90468C13.0641 8.90468 12.943 8.95485 12.8537 9.04415C12.7644 9.13346 12.7142 9.25458 12.7142 9.38087V12.0409L9.71801 9.04373C9.6286 8.95431 9.50733 8.90408 9.38087 8.90408C9.25442 8.90408 9.13314 8.95431 9.04373 9.04373C8.95431 9.13314 8.90408 9.25442 8.90408 9.38087C8.90408 9.50733 8.95431 9.6286 9.04373 9.71801L12.0409 12.7142H9.38087C9.25458 12.7142 9.13346 12.7644 9.04415 12.8537C8.95485 12.943 8.90468 13.0641 8.90468 13.1904C8.90468 13.3167 8.95485 13.4378 9.04415 13.5271C9.13346 13.6164 9.25458 13.6666 9.38087 13.6666H13.1904Z" fill="#EDC649"/>
</svg>
