<svg width="57" height="64" viewBox="0 0 57 64" fill="none" xmlns="http://www.w3.org/2000/svg">
<path d="M9.82818 1.53074C10.4931 0.874107 11.3953 0.502865 12.3382 0.5H40.4832L56.3898 16.2084L56.3898 59.9984C56.3898 59.9988 56.3898 59.9992 56.3898 59.9996C56.3867 60.925 56.0132 61.813 55.3487 62.4693C54.684 63.1258 53.782 63.497 52.8393 63.5C52.8389 63.5 52.8384 63.5 52.838 63.5H12.3389C12.3384 63.5 12.338 63.5 12.3376 63.5C11.3949 63.497 10.4929 63.1258 9.82818 62.4693C9.16353 61.8128 8.79 60.9247 8.78711 59.9991V4.0009C8.79 3.07531 9.16353 2.18716 9.82818 1.53074Z" fill="#2E2E2C" stroke="#3D3D3B"/>
<path d="M44.7349 15.9994H56.8859L40.6846 0V12.0004C40.688 13.0602 41.1158 14.0756 41.8747 14.8248C42.6336 15.5741 43.6618 15.9964 44.7349 15.9994Z" fill="#282828"/>
<path d="M56.8824 28.0097L44.7314 16.0093H56.8824V28.0097Z" fill="#202020"/>
<path d="M48.6015 52.2595C48.5996 52.7892 48.3857 53.2967 48.0064 53.6713C47.6272 54.0459 47.1133 54.2572 46.5769 54.259H2.02457C1.4882 54.2572 0.974314 54.0459 0.595035 53.6713C0.215755 53.2967 0.00185493 52.7892 0 52.2595V32.2588C0.00185493 31.729 0.215755 31.2215 0.595035 30.8469C0.974314 30.4724 1.4882 30.2611 2.02457 30.2593H46.5769C47.1133 30.2611 47.6272 30.4724 48.0064 30.8469C48.3857 31.2215 48.5996 31.729 48.6015 32.2588V52.2595Z" fill="#282828"/>
<path d="M46.761 53.9999H8.28711V56.0009H46.761C47.2976 55.9991 47.8117 55.7876 48.191 55.4127C48.5703 55.0378 48.784 54.5299 48.7856 53.9999V52C48.784 52.5299 48.5703 53.0377 48.1909 53.4124C47.8116 53.7871 47.2975 53.9984 46.761 53.9999Z" fill="#131311"/>
<path d="M17.4154 42.6344V41.2825H13.2114V38.5671H17.7661V37.2036H11.7217V46.5709H13.2114V42.6321L17.4154 42.6344ZM19.4986 46.5709H20.9883V37.2036H19.4986V46.5709ZM24.8943 45.2074V37.2036H23.4046V46.5709H29.171V45.2074H24.8943ZM36.6382 38.5312V37.2036H30.5692V46.5709H36.6863V45.2317H32.0601V42.4676H36.2265V41.14H32.0601V38.5312H36.6382Z" fill="#F1C217"/>
</svg>
