<svg width="20" height="14" viewBox="0 0 20 14" fill="none" xmlns="http://www.w3.org/2000/svg">
<path fill-rule="evenodd" clip-rule="evenodd" d="M18.8892 2.28005C19.0316 2.29015 19.1744 2.26819 19.3087 2.21552C19.443 2.16286 19.566 2.08062 19.6701 1.97388C19.7743 1.86715 19.8573 1.73818 19.914 1.59496C19.9707 1.45174 20 1.29731 20 1.14122C20 0.985137 19.9707 0.83072 19.914 0.687502C19.8573 0.544283 19.7743 0.415317 19.6701 0.308578C19.566 0.201838 19.443 0.119583 19.3087 0.0669206C19.1744 0.0142578 19.0316 -0.00770635 18.8892 0.00238995H1.11083C0.968426 -0.00770635 0.825649 0.0142578 0.691318 0.0669206C0.556987 0.119583 0.433971 0.201838 0.329855 0.308578C0.22574 0.415317 0.142737 0.544283 0.0860021 0.687502C0.0292676 0.83072 0 0.985137 0 1.14122C0 1.29731 0.0292676 1.45174 0.0860021 1.59496C0.142737 1.73818 0.22574 1.86715 0.329855 1.97388C0.433971 2.08062 0.556987 2.16286 0.691318 2.21552C0.825649 2.26819 0.968426 2.29015 1.11083 2.28005" fill="white"/>
<path fill-rule="evenodd" clip-rule="evenodd" d="M4.06395 8.13894H15.1758C15.3182 8.14904 15.461 8.12705 15.5953 8.07439C15.7297 8.02173 15.8527 7.93949 15.9568 7.83275C16.0609 7.72601 16.1439 7.59707 16.2007 7.45385C16.2574 7.31063 16.2867 7.15619 16.2867 7.00011C16.2867 6.84402 16.2574 6.68961 16.2007 6.54639C16.1439 6.40317 16.0609 6.2742 15.9568 6.16746C15.8527 6.06072 15.7297 5.97847 15.5953 5.92581C15.461 5.87314 15.3182 5.85118 15.1758 5.86128H4.06395C3.92155 5.85118 3.77877 5.87314 3.64444 5.92581C3.51011 5.97847 3.3871 6.06072 3.28298 6.16746C3.17886 6.2742 3.09586 6.40317 3.03913 6.54639C2.98239 6.68961 2.95312 6.84402 2.95312 7.00011C2.95312 7.15619 2.98239 7.31063 3.03913 7.45385C3.09586 7.59707 3.17886 7.72601 3.28298 7.83275C3.3871 7.93949 3.51011 8.02173 3.64444 8.07439C3.77877 8.12705 3.92155 8.14904 4.06395 8.13894V8.13894Z" fill="white"/>
<path fill-rule="evenodd" clip-rule="evenodd" d="M8.49364 13.9976H10.7114C10.8538 14.0077 10.9966 13.9857 11.1309 13.933C11.2653 13.8804 11.3883 13.7981 11.4924 13.6914C11.5965 13.5847 11.6795 13.4557 11.7362 13.3125C11.793 13.1693 11.8223 13.0148 11.8223 12.8588C11.8223 12.7027 11.793 12.5482 11.7362 12.405C11.6795 12.2618 11.5965 12.1328 11.4924 12.0261C11.3883 11.9194 11.2653 11.8371 11.1309 11.7845C10.9966 11.7318 10.8538 11.7098 10.7114 11.7199H8.49364C8.35124 11.7098 8.20846 11.7318 8.07413 11.7845C7.9398 11.8371 7.81678 11.9194 7.71267 12.0261C7.60855 12.1328 7.52555 12.2618 7.46881 12.405C7.41208 12.5482 7.38281 12.7027 7.38281 12.8588C7.38281 13.0148 7.41208 13.1693 7.46881 13.3125C7.52555 13.4557 7.60855 13.5847 7.71267 13.6914C7.81678 13.7981 7.9398 13.8804 8.07413 13.933C8.20846 13.9857 8.35124 14.0077 8.49364 13.9976Z" fill="#F1C218"/>
</svg>
