<svg width="18" height="18" viewBox="0 0 18 18" fill="none" xmlns="http://www.w3.org/2000/svg">
<path fill-rule="evenodd" clip-rule="evenodd" d="M5.38759 0.666504H12.6106C15.4474 0.666504 17.3324 2.69129 17.3324 5.5971V12.4026C17.3324 15.3085 15.4473 17.3332 12.6098 17.3332H5.38759C2.55081 17.3332 0.665771 15.3084 0.665771 12.4026V5.5971C0.665771 2.69373 2.55531 0.666504 5.38759 0.666504ZM12.6104 1.9192H5.38734C3.26736 1.9192 1.91821 3.36665 1.91821 5.59711V12.4026C1.91821 13.0235 2.02221 13.5835 2.21803 14.0685L3.17663 12.9048L3.60009 12.3827C4.66598 11.062 5.6431 10.4916 6.92288 11.0276C7.11723 11.1092 7.28345 11.1972 7.49614 11.3285L8.04667 11.6837C8.59644 12.0323 8.85826 12.0823 9.26033 11.8644C9.61776 11.671 9.86845 11.4005 10.2497 10.8137L10.4999 10.4156L10.6701 10.1427C10.8231 9.90096 10.9321 9.74231 11.0654 9.56954C11.9473 8.42828 13.3223 8.05664 14.5242 8.77967C15.0447 9.09334 15.4227 9.40469 16.0795 10.0313V5.59711C16.0795 3.36391 14.7345 1.9192 12.6104 1.9192ZM16.0795 11.762L16.039 11.7257C15.9521 11.6458 15.8592 11.5582 15.7478 11.4514L15.165 10.8903C14.6061 10.3597 14.2864 10.099 13.878 9.85285C13.2606 9.48139 12.573 9.66721 12.0569 10.3352L11.9525 10.4758C11.9178 10.5245 11.8826 10.5759 11.8445 10.6332L11.5183 11.1507C10.903 12.1477 10.5297 12.6019 9.8568 12.966C9.02813 13.415 8.35286 13.3217 7.5317 12.8371L7.16681 12.6062L6.85993 12.4081C6.6895 12.3023 6.56767 12.2371 6.43858 12.1829C5.87988 11.9489 5.38344 12.2076 4.69785 13.0203L3.19254 14.8593C3.11122 14.9578 3.02719 15.0593 2.94001 15.1646C3.53732 15.7514 4.3736 16.0805 5.38734 16.0805H12.6095C14.7344 16.0805 16.0795 14.6359 16.0795 12.4026V11.762ZM4.22534 6.33303C4.22534 5.1363 5.19624 4.16504 6.3925 4.16504C7.58942 4.16504 8.5605 5.13612 8.5605 6.33303C8.5605 7.52995 7.58942 8.50103 6.3925 8.50103C5.19624 8.50103 4.22534 7.52977 4.22534 6.33303ZM7.30755 6.33304C7.30755 5.82796 6.89732 5.41773 6.39225 5.41773C5.88793 5.41773 5.47778 5.82804 5.47778 6.33304C5.47778 6.83803 5.88793 7.24834 6.39225 7.24834C6.89732 7.24834 7.30755 6.83811 7.30755 6.33304Z" fill="#F1C217"/>
</svg>
