<svg width="21" height="16" viewBox="0 0 21 16" fill="none" xmlns="http://www.w3.org/2000/svg">
<path d="M19.5 0H1.5C0.671573 0 0 0.671573 0 1.5C0 2.32843 0.671573 3 1.5 3H19.5C20.3284 3 21 2.32843 21 1.5C21 0.671573 20.3284 0 19.5 0Z" fill="white"/>
<path d="M19.5 6.25903H1.5C0.671573 6.25903 0 6.93061 0 7.75903C0 8.58746 0.671573 9.25903 1.5 9.25903H19.5C20.3284 9.25903 21 8.58746 21 7.75903C21 6.93061 20.3284 6.25903 19.5 6.25903Z" fill="white"/>
<path d="M13.5 13H1.5C0.671573 13 0 13.6716 0 14.5C0 15.3284 0.671573 16 1.5 16H13.5C14.3284 16 15 15.3284 15 14.5C15 13.6716 14.3284 13 13.5 13Z" fill="#F1C218"/>
</svg>
