<svg width="24" height="24" viewBox="0 0 24 24" fill="none" xmlns="http://www.w3.org/2000/svg">
<path d="M5.31818 22.15H18.6818C20.0226 22.15 21.15 21.0874 21.15 19.7029V9.61548C21.15 8.90266 20.8213 8.22742 20.2412 7.76699C20.2411 7.76693 20.241 7.76687 20.241 7.76681L13.561 2.40837C13.5608 2.4082 13.5606 2.40802 13.5604 2.40784C12.653 1.664 11.3468 1.66405 10.4394 2.40799C10.4393 2.40812 10.4391 2.40824 10.439 2.40837L3.75904 7.8001C3.75888 7.80023 3.75871 7.80036 3.75855 7.80049C3.17857 8.26091 2.85 8.93606 2.85 9.64877V19.7362C2.85 21.0888 3.97881 22.15 5.31818 22.15ZM4.79923 9.06599L11.4796 3.6739C11.6191 3.56536 11.823 3.50664 12 3.50664C12.177 3.50664 12.3809 3.56536 12.5204 3.67389C12.5207 3.67413 12.521 3.67436 12.5213 3.67459L19.2008 9.06599C19.2009 9.0661 19.201 9.06621 19.2012 9.06632C19.3732 9.20649 19.4864 9.43107 19.4864 9.64877V19.7362C19.4864 20.1792 19.1173 20.5183 18.6818 20.5183H5.31818C4.85571 20.5183 4.51364 20.1528 4.51364 19.7362V9.64877C4.51364 9.43098 4.62693 9.20631 4.79902 9.06616C4.79909 9.0661 4.79916 9.06604 4.79923 9.06599Z" fill="white" stroke="white" stroke-width="0.3"/>
<path d="M7.90936 18.2204H16.0912C16.5456 18.2204 16.923 17.857 16.923 17.4046C16.923 16.9522 16.5456 16.5888 16.0912 16.5888H7.90936C7.45489 16.5888 7.07754 16.9522 7.07754 17.4046C7.07754 17.857 7.45489 18.2204 7.90936 18.2204Z" fill="#F1C217" stroke="#F1C217" stroke-width="0.3"/>
</svg>
