<svg width="14" height="21" viewBox="0 0 14 21" fill="none" xmlns="http://www.w3.org/2000/svg">
<path d="M10.272 13.9693C10.388 14.0344 10.5159 14.0757 10.6481 14.0909C10.7804 14.106 10.9143 14.0947 11.0421 14.0575C11.1699 14.0203 11.2889 13.9581 11.3923 13.8744C11.4957 13.7907 11.5812 13.6873 11.644 13.5701C12.932 11.0756 14 8.51327 14 6.98463C14 5.13219 13.2625 3.35562 11.9497 2.04575C10.637 0.735879 8.85652 0 7 0C5.14348 0 3.36301 0.735879 2.05025 2.04575C0.737498 3.35562 0 5.13219 0 6.98463C0 9.97805 4.348 16.9507 6.284 19.557C6.38858 19.6974 6.52507 19.8111 6.68225 19.8886C6.83943 19.9661 7.01281 20.0054 7.18813 20.003C7.36346 20.0007 7.53572 19.9569 7.69077 19.8752C7.84582 19.7934 7.97922 19.6762 8.08 19.533C8.508 18.9224 9.056 18.0802 9.652 17.1064C9.72107 16.991 9.76627 16.863 9.78494 16.7299C9.8036 16.5969 9.79535 16.4614 9.76068 16.3315C9.726 16.2017 9.6656 16.0801 9.58304 15.9739C9.50048 15.8678 9.39744 15.7792 9.28 15.7134C9.05363 15.5909 8.78874 15.5599 8.54008 15.6267C8.29143 15.6936 8.07803 15.8532 7.944 16.0726C7.676 16.5117 7.412 16.9347 7.144 17.3339C4.868 14.0212 2 8.86051 2 6.98463C2 5.66146 2.52678 4.39248 3.46447 3.45686C4.40215 2.52124 5.67392 1.99561 7 1.99561C8.32608 1.99561 9.59785 2.52124 10.5355 3.45686C11.4732 4.39248 12 5.66146 12 6.98463C12 8.0902 11.072 10.3213 9.868 12.6442C9.7486 12.8748 9.72357 13.1427 9.79819 13.3913C9.8728 13.64 10.0412 13.85 10.268 13.9773L10.272 13.9693Z" fill="#F1C218"/>
<path d="M7.0001 5.58765C7.27699 5.58765 7.54767 5.66958 7.7779 5.82308C8.00813 5.97657 8.18757 6.19474 8.29353 6.45C8.39949 6.70525 8.42722 6.98613 8.3732 7.2571C8.31918 7.52808 8.18584 7.77699 7.99005 7.97235C7.79426 8.16772 7.5448 8.30076 7.27323 8.35466C7.00165 8.40856 6.72016 8.3809 6.46434 8.27517C6.20853 8.16944 5.98988 7.99039 5.83604 7.76067C5.68221 7.53095 5.6001 7.26086 5.6001 6.98458C5.6001 6.61409 5.7476 6.25878 6.01015 5.9968C6.2727 5.73483 6.6288 5.58765 7.0001 5.58765ZM7.0001 3.59204C6.32764 3.59204 5.67029 3.79101 5.11116 4.16379C4.55203 4.53656 4.11625 5.0664 3.85891 5.68631C3.60157 6.30622 3.53424 6.98834 3.66543 7.64643C3.79662 8.30452 4.12044 8.90901 4.59594 9.38346C5.07143 9.85792 5.67726 10.181 6.33679 10.3119C6.99633 10.4428 7.67995 10.3756 8.30122 10.1189C8.92249 9.8621 9.4535 9.42727 9.8271 8.86937C10.2007 8.31147 10.4001 7.65556 10.4001 6.98458C10.399 6.08515 10.0405 5.22285 9.40309 4.58686C8.7657 3.95086 7.90151 3.5931 7.0001 3.59204Z" fill="white"/>
</svg>
