<svg width="15" height="18" viewBox="0 0 15 18" fill="none" xmlns="http://www.w3.org/2000/svg">
<path fill-rule="evenodd" clip-rule="evenodd" d="M7.52432 0.66679C3.68347 0.653741 0.546239 3.70954 0.420849 7.53454L0.416992 7.77196C0.480833 9.64681 1.11872 11.434 2.24223 12.9064L2.50609 13.2508C3.57849 14.6143 4.85292 15.8112 6.28389 16.7977L6.62842 17.0296L6.6787 17.0691C7.16916 17.4215 7.83137 17.4215 8.32184 17.0691L8.36368 17.0347C9.49912 16.2983 10.5462 15.4331 11.484 14.4562C13.3908 12.4377 14.5401 10.1761 14.5835 7.87923L14.5836 7.79395C14.5966 3.94335 11.5502 0.796473 7.73696 0.670657L7.52432 0.66679ZM7.52004 1.93129C10.6688 1.94206 13.2253 4.45792 13.3203 7.591L13.3229 7.86725C13.2865 9.79294 12.2782 11.7771 10.5725 13.5827C9.70277 14.4886 8.72761 15.2939 7.66996 15.9788L7.59947 16.0318C7.54251 16.0812 7.45802 16.0812 7.40106 16.0318L7.33255 15.9801C5.75697 14.9514 4.37413 13.6526 3.24729 12.1432C2.33964 10.9536 1.80179 9.53123 1.69353 8.04748L1.67762 7.74996C1.68832 4.59358 4.19643 2.02922 7.31987 1.934L7.52004 1.93129ZM7.50027 5.16782C6.00994 5.16782 4.80179 6.3797 4.80179 7.87463C4.80179 9.36956 6.00994 10.5814 7.50027 10.5814C8.99059 10.5814 10.1987 9.36956 10.1987 7.87463C10.1987 6.3797 8.99059 5.16782 7.50027 5.16782ZM7.50027 6.43234C8.29437 6.43234 8.93811 7.07808 8.93811 7.87463C8.93811 8.67118 8.29437 9.31692 7.50027 9.31692C6.70616 9.31692 6.06242 8.67118 6.06242 7.87463C6.06242 7.07808 6.70616 6.43234 7.50027 6.43234Z" fill="#F1C217"/>
</svg>
