<svg width="16" height="18" viewBox="0 0 16 18" fill="none" xmlns="http://www.w3.org/2000/svg">
<path fill-rule="evenodd" clip-rule="evenodd" d="M8.0253 0.325238C4.18444 0.311886 1.04722 3.43875 0.921825 7.35271L0.917969 7.59564C0.981809 9.51409 1.6197 11.3428 2.7432 12.8495L3.00707 13.2019C4.07947 14.5971 5.3539 15.8218 6.78486 16.8312L7.1294 17.0686L7.17967 17.109C7.67013 17.4696 8.33235 17.4696 8.82281 17.109L8.86465 17.0738C10.0001 16.3203 11.0471 15.435 11.985 14.4353C13.8918 12.3699 15.0411 10.0557 15.0844 7.70541L15.0846 7.61815C15.0976 3.678 12.0512 0.457937 8.23794 0.329195L8.0253 0.325238ZM8.02102 1.61915C11.1698 1.63017 13.7263 4.20453 13.8212 7.41048L13.8239 7.69315C13.7874 9.66362 12.7792 11.6939 11.0735 13.5415C10.2037 14.4685 9.22859 15.2925 8.17094 15.9933L8.10045 16.0476C8.04349 16.0981 7.959 16.0981 7.90204 16.0476L7.83353 15.9946C6.25795 14.942 4.87511 13.6131 3.74827 12.0685C2.84062 10.8512 2.30276 9.39583 2.1945 7.87757L2.1786 7.57313C2.18929 4.34335 4.6974 1.71936 7.82084 1.62192L8.02102 1.61915ZM8.00124 4.93095C6.51091 4.93095 5.30276 6.17101 5.30276 7.7007C5.30276 9.23039 6.51091 10.4705 8.00124 10.4705C9.49157 10.4705 10.6997 9.23039 10.6997 7.7007C10.6997 6.17101 9.49157 4.93095 8.00124 4.93095ZM8.00124 6.22487C8.79534 6.22487 9.43909 6.88562 9.43909 7.7007C9.43909 8.51578 8.79534 9.17653 8.00124 9.17653C7.20714 9.17653 6.56339 8.51578 6.56339 7.7007C6.56339 6.88562 7.20714 6.22487 8.00124 6.22487Z" fill="#F1C217"/>
</svg>
