<svg width="16" height="21" viewBox="0 0 16 21" fill="none" xmlns="http://www.w3.org/2000/svg">
<path d="M4.63158 9.99999V6.32799C4.61642 5.49777 4.93286 4.69292 5.51722 4.07544C6.10158 3.45796 6.91046 3.07369 7.78105 2.99999C8.24147 2.9715 8.70314 3.03317 9.13743 3.18117C9.57172 3.32918 9.96937 3.56037 10.3057 3.86041C10.6421 4.16044 10.91 4.52293 11.0928 4.92538C11.2756 5.32783 11.3694 5.76167 11.3684 6.19999V9.39999H2.46316C1.80989 9.39999 1.18337 9.64652 0.721442 10.0854C0.25951 10.5242 0 11.1194 0 11.74L0 18.66C0 19.2806 0.25951 19.8758 0.721442 20.3146C1.18337 20.7535 1.80989 21 2.46316 21H13.5368C14.1901 21 14.8166 20.7535 15.2786 20.3146C15.7405 19.8758 16 19.2806 16 18.66V11.74C16 11.1194 15.7405 10.5242 15.2786 10.0854C14.8166 9.64652 14.1901 9.39999 13.5368 9.39999H13.4737V6.19999C13.4744 5.49679 13.3251 4.80076 13.0346 4.15397C12.7441 3.50719 12.3186 2.92309 11.7837 2.43701C11.2488 1.95093 10.6157 1.57296 9.92264 1.32596C9.2296 1.07897 8.49102 0.968073 7.75158 0.999987C6.32385 1.08798 4.98605 1.69292 4.01389 2.69015C3.04173 3.68738 2.5093 5.00089 2.52632 6.35999V9.99999H4.63158ZM13.8947 18.66C13.8947 18.7046 13.8855 18.7488 13.8675 18.7901C13.8495 18.8314 13.8231 18.8688 13.7899 18.9004C13.7567 18.932 13.7172 18.957 13.6738 18.9741C13.6304 18.9912 13.5838 19 13.5368 19H2.46316C2.36824 19 2.27721 18.9642 2.21009 18.9004C2.14297 18.8366 2.10526 18.7502 2.10526 18.66V11.74C2.10526 11.6498 2.14297 11.5633 2.21009 11.4996C2.27721 11.4358 2.36824 11.4 2.46316 11.4H13.5368C13.5838 11.4 13.6304 11.4088 13.6738 11.4259C13.7172 11.443 13.7567 11.468 13.7899 11.4996C13.8231 11.5311 13.8495 11.5686 13.8675 11.6099C13.8855 11.6511 13.8947 11.6953 13.8947 11.74V18.66Z" fill="#F1C218"/>
<path d="M9.05253 14.3999C9.05253 13.8476 8.58125 13.3999 7.9999 13.3999C7.41854 13.3999 6.94727 13.8476 6.94727 14.3999V15.9999C6.94727 16.5522 7.41854 16.9999 7.9999 16.9999C8.58125 16.9999 9.05253 16.5522 9.05253 15.9999V14.3999Z" fill="white"/>
</svg>
