<svg width="184" height="36" viewBox="0 0 184 36" fill="none" xmlns="http://www.w3.org/2000/svg">
<path d="M64.2684 21.7213L54.1726 4.77189C54.0597 4.58188 54.0002 4.36628 54 4.14677C53.9998 3.92726 54.059 3.71156 54.1715 3.52137C54.2841 3.33117 54.4461 3.17318 54.6413 3.06327C54.8364 2.95335 55.0579 2.8954 55.2834 2.89522H61.4019C61.6303 2.89524 61.8546 2.95467 62.0516 3.06737C62.2485 3.18007 62.411 3.34195 62.5221 3.53626L67.4498 12.1206C67.5613 12.314 67.7236 12.475 67.9202 12.587C68.1167 12.699 68.3404 12.7581 68.5682 12.7581C68.7959 12.7581 69.0196 12.699 69.2161 12.587C69.4127 12.475 69.575 12.314 69.6865 12.1206L74.6829 3.52325C74.795 3.33073 74.9576 3.17064 75.1541 3.05932C75.3506 2.948 75.5739 2.88945 75.8012 2.88965H81.7175C81.943 2.88996 82.1646 2.94811 82.3597 3.05825C82.5549 3.16839 82.7168 3.32664 82.8292 3.51706C82.9416 3.70748 83.0005 3.92337 83 4.14299C82.9995 4.36262 82.9396 4.57825 82.8263 4.76817L72.7 21.7213C72.5859 21.9127 72.5259 22.13 72.5263 22.3512V32.7565C72.5258 33.088 72.3903 33.4058 72.1496 33.6402C71.9088 33.8746 71.5824 34.0065 71.2419 34.007H65.7245C65.3841 34.0065 65.0577 33.8746 64.8169 33.6402C64.5761 33.4058 64.4407 33.088 64.4402 32.7565V22.3512C64.4409 22.1302 64.3816 21.9129 64.2684 21.7213Z" fill="white"/>
<path d="M86 32.3324V4.56798C86 4.12437 86.1835 3.69892 86.5103 3.38523C86.837 3.07154 87.2801 2.89532 87.7422 2.89532H92.4441C92.9061 2.89532 93.3493 3.07154 93.676 3.38523C94.0027 3.69892 94.1862 4.12437 94.1862 4.56798V11.0431C94.1813 11.4009 94.296 11.7508 94.5135 12.0414C94.731 12.3321 95.0399 12.548 95.3947 12.6576C95.7495 12.7672 96.1316 12.7647 96.4848 12.6504C96.838 12.5361 97.1437 12.316 97.357 12.0225L103.687 3.58668C103.848 3.37076 104.061 3.19492 104.308 3.07371C104.554 2.95251 104.827 2.88944 105.104 2.88973H110.392C110.716 2.88659 111.034 2.96994 111.31 3.13044C111.587 3.29095 111.812 3.52227 111.96 3.79852C112.107 4.07477 112.172 4.38503 112.147 4.69457C112.121 5.0041 112.006 5.3007 111.815 5.55114L103.412 16.7023C103.2 16.9854 103.084 17.3248 103.081 17.6738C103.078 18.0227 103.189 18.3638 103.397 18.65L112.678 31.366C112.864 31.6171 112.974 31.9124 112.996 32.2196C113.018 32.5268 112.951 32.8338 112.803 33.1069C112.655 33.38 112.431 33.6085 112.156 33.7673C111.882 33.9262 111.567 34.0091 111.246 34.007H105.398C105.111 34.0078 104.828 33.9403 104.574 33.8106C104.32 33.6809 104.104 33.493 103.944 33.2636L97.3976 23.8613C97.1915 23.559 96.889 23.3289 96.5353 23.2054C96.1816 23.0819 95.7958 23.0717 95.4356 23.1763C95.0753 23.2809 94.7601 23.4947 94.537 23.7857C94.3139 24.0767 94.1949 24.4292 94.1979 24.7906V32.3324C94.1979 32.7761 94.0143 33.2015 93.6876 33.5152C93.3609 33.8289 92.9177 34.0051 92.4557 34.0051H87.748C87.5187 34.0058 87.2915 33.9631 87.0795 33.8794C86.8675 33.7957 86.6747 33.6726 86.5123 33.5172C86.3499 33.3618 86.2211 33.1771 86.1332 32.9738C86.0453 32.7705 86 32.5526 86 32.3324Z" fill="white"/>
<path d="M123.633 34.007H118.367C117.74 34.007 117.137 33.8112 116.693 33.4626C116.249 33.114 116 32.6412 116 32.1483V4.7484C116 4.25543 116.249 3.78265 116.693 3.43407C117.137 3.08548 117.74 2.88965 118.367 2.88965H123.633C124.26 2.88965 124.863 3.08548 125.307 3.43407C125.751 3.78265 126 4.25543 126 4.7484V32.1408C126.001 32.3855 125.941 32.628 125.822 32.8544C125.704 33.0808 125.53 33.2866 125.31 33.46C125.09 33.6334 124.829 33.7709 124.541 33.8648C124.253 33.9587 123.944 34.007 123.633 34.007Z" fill="white"/>
<path d="M132 4.92078C132 4.38209 132.207 3.86547 132.575 3.48456C132.943 3.10365 133.442 2.88965 133.963 2.88965H143.75C147.09 2.88965 149.816 3.76306 151.89 5.4727C153.964 7.18234 155 9.68548 155 12.984C155 16.3624 153.887 18.9454 151.698 20.6941C149.509 22.4019 146.706 23.2771 143.289 23.2771H141.528C141.007 23.2771 140.508 23.4911 140.14 23.872C139.772 24.2529 139.565 24.7696 139.565 25.3083V31.9759C139.564 32.5144 139.358 33.0308 138.99 33.4116C138.622 33.7924 138.123 34.0065 137.602 34.007H133.963C133.442 34.007 132.943 33.793 132.575 33.4121C132.207 33.0312 132 32.5146 132 31.9759V4.92078ZM139.565 14.5691C139.565 15.1078 139.772 15.6244 140.14 16.0053C140.508 16.3862 141.007 16.6002 141.528 16.6002H143.174C145.977 16.6002 147.397 15.4853 147.397 13.3017C147.397 10.9566 145.977 9.77097 143.135 9.77097H141.528C141.007 9.77097 140.508 9.98495 140.14 10.3659C139.772 10.7468 139.565 11.2634 139.565 11.8021V14.5691Z" fill="white"/>
<path d="M159 4.92078C159 4.38209 159.225 3.86547 159.625 3.48456C160.025 3.10365 160.567 2.88965 161.133 2.88965H171.771C175.403 2.88965 178.366 3.76306 180.62 5.4727C182.874 7.18234 184 9.68548 184 12.984C184 16.3624 182.79 18.9454 180.411 20.6941C178.032 22.4019 174.986 23.2771 171.272 23.2771H169.355C168.789 23.2771 168.247 23.4911 167.847 23.872C167.447 24.2529 167.222 24.7696 167.222 25.3083V31.9759C167.222 32.5146 166.997 33.0312 166.597 33.4121C166.197 33.793 165.655 34.007 165.089 34.007H161.133C160.568 34.0065 160.025 33.7924 159.625 33.4116C159.225 33.0308 159.001 32.5144 159 31.9759V4.92078ZM167.222 14.5691C167.222 15.1078 167.447 15.6244 167.847 16.0053C168.247 16.3862 168.789 16.6002 169.355 16.6002H171.145C174.193 16.6002 175.737 15.4853 175.737 13.3017C175.737 10.9566 174.193 9.77097 171.104 9.77097H169.347C168.782 9.77097 168.239 9.98495 167.839 10.3659C167.439 10.7468 167.214 11.2634 167.214 11.8021L167.222 14.5691Z" fill="white"/>
<path d="M21.2082 22.8556C21.5174 22.8556 21.8139 22.7355 22.0327 22.5216C22.2516 22.3078 22.3747 22.0177 22.3752 21.715V9.14249H24.71C25.6336 9.14249 26.5364 8.87439 27.3043 8.3721C28.0722 7.8698 28.6707 7.15587 29.0242 6.32059C29.3776 5.4853 29.4701 4.56618 29.2899 3.67944C29.1097 2.79271 28.665 1.97819 28.0119 1.33889C27.3589 0.699589 26.5268 0.26422 25.621 0.0878373C24.7152 -0.0885453 23.7763 0.00198065 22.9231 0.347967C22.0698 0.693954 21.3405 1.27986 20.8274 2.0316C20.3143 2.78334 20.0404 3.66714 20.0404 4.57125V6.85687H17.7088V4.57125C17.7088 3.66714 17.4349 2.78334 16.9218 2.0316C16.4087 1.27986 15.6794 0.693954 14.8262 0.347967C13.9729 0.00198065 13.034 -0.0885453 12.1282 0.0878373C11.2224 0.26422 10.3904 0.699589 9.73732 1.33889C9.08427 1.97819 8.63953 2.79271 8.45936 3.67944C8.27918 4.56618 8.37165 5.4853 8.72508 6.32059C9.07851 7.15587 9.67702 7.8698 10.4449 8.3721C11.2128 8.87439 12.1157 9.14249 13.0392 9.14249H15.374V21.715C15.3811 22.0135 15.5072 22.2974 15.7254 22.506C15.9435 22.7147 16.2364 22.8315 16.5414 22.8315C16.8464 22.8315 17.1393 22.7147 17.3575 22.506C17.5756 22.2974 17.7017 22.0135 17.7088 21.715V9.14249H20.0404V21.715C20.0411 22.0177 20.1644 22.3078 20.3833 22.5217C20.6023 22.7355 20.8989 22.8556 21.2082 22.8556ZM22.3752 4.57125C22.3752 4.11919 22.5122 3.67729 22.7687 3.30142C23.0253 2.92556 23.3899 2.6326 23.8165 2.45961C24.2432 2.28661 24.7126 2.24135 25.1655 2.32954C25.6184 2.41773 26.0344 2.63542 26.361 2.95507C26.6875 3.27472 26.9099 3.68198 27 4.12534C27.09 4.56871 27.0438 5.02827 26.8671 5.44592C26.6904 5.86356 26.3911 6.22053 26.0072 6.47167C25.6232 6.72282 25.1718 6.85687 24.71 6.85687H22.3752V4.57125ZM15.3715 6.85687H13.0367C12.5749 6.85687 12.1235 6.72282 11.7396 6.47167C11.3556 6.22053 11.0563 5.86356 10.8796 5.44592C10.7029 5.02827 10.6567 4.56871 10.7468 4.12534C10.8369 3.68198 11.0592 3.27472 11.3857 2.95507C11.7123 2.63542 12.1283 2.41773 12.5812 2.32954C13.0341 2.24135 13.5036 2.28661 13.9302 2.45961C14.3568 2.6326 14.7215 2.92556 14.978 3.30142C15.2346 3.67729 15.3715 4.11919 15.3715 4.57125V6.85687Z" fill="white"/>
<path d="M31.9117 18.7094C31.5317 18.2513 30.9818 17.9591 30.3823 17.8969C29.7828 17.8347 29.1825 18.0075 28.7129 18.3775C25.975 20.55 22.5565 21.7331 19.0322 21.7279C16.1142 21.728 13.2563 20.9169 10.7908 19.389C8.3253 17.8612 6.35369 15.6794 5.10535 13.0975C4.97338 12.8232 4.78719 12.5773 4.55754 12.3739C4.3279 12.1705 4.05934 12.0136 3.76741 11.9124C3.47547 11.8113 3.16595 11.7677 2.85672 11.7843C2.54749 11.801 2.2447 11.8774 1.96583 12.0093C1.42677 12.2639 1.01173 12.716 0.810431 13.2678C0.609137 13.8196 0.637765 14.4268 0.890125 14.9581C4.08573 21.6311 11.0088 26.2523 19.0353 26.2523C23.6207 26.2591 28.0684 24.7188 31.6294 21.8908C31.861 21.7055 32.0531 21.4774 32.1946 21.2194C32.3361 20.9614 32.4243 20.6786 32.4542 20.3872C32.484 20.0958 32.4549 19.8016 32.3686 19.5212C32.2822 19.2408 32.1402 18.9799 31.9507 18.7532L31.9117 18.7094Z" fill="white"/>
<path d="M35.9127 12.3866C35.6401 12.2538 35.3434 12.175 35.0397 12.1546C34.7359 12.1342 34.4311 12.1726 34.1425 12.2676C33.8539 12.3626 33.5873 12.5123 33.3578 12.7082C33.1284 12.9041 32.9406 13.1424 32.8053 13.4094C32.644 13.7248 32.4715 14.0333 32.2879 14.3347C32.0169 14.7778 31.9086 15.2981 31.9808 15.8097C32.053 16.3212 32.3014 16.7933 32.6849 17.1478C33.7562 18.1348 35.4924 17.9103 36.2454 16.6746C36.492 16.27 36.7231 15.8562 36.9386 15.4334C37.076 15.1675 37.1584 14.8776 37.1812 14.5805C37.2039 14.2833 37.1666 13.9847 37.0713 13.7017C36.976 13.4186 36.8246 13.1568 36.6258 12.9311C36.427 12.7055 36.1847 12.5204 35.9127 12.3866Z" fill="white"/>
<path d="M4.90735 12.7701C4.90735 12.7701 3.80076 18.3598 8.25357 23.1748C8.25357 23.1748 3.97784 20.907 1.1742 15.5351C1.1742 15.5351 -0.180673 13.8077 1.50882 12.2945C1.77698 12.0693 2.09637 11.9105 2.44022 11.8312C2.64693 11.7863 2.85901 11.7697 3.07039 11.7818C3.3023 11.791 3.53169 11.8325 3.75161 11.9052C4.01309 11.9958 4.25657 12.13 4.47127 12.3019C4.63778 12.4377 4.78451 12.5953 4.90735 12.7701Z" fill="white"/>
<path d="M2.37338 11.849C2.39789 13.0666 2.58042 14.2761 2.91659 15.4486C4.09312 19.5374 6.85013 22.0643 8.2529 23.1766C7.99137 23.0297 7.63974 22.8212 7.24147 22.5461C6.78857 22.2297 6.35451 21.8882 5.94142 21.5233C5.3667 21.0297 4.94953 20.6207 4.77371 20.4443C4.54306 20.2136 4.11077 19.7694 3.61545 19.1809C2.96633 18.4072 2.37656 17.5876 1.85096 16.7287C1.73249 16.5412 1.61444 16.3483 1.49681 16.15C1.35523 15.9148 1.22142 15.6835 1.09539 15.456C0.929634 15.2103 0.806953 14.9393 0.732405 14.6541C0.626064 14.2858 0.617173 13.8971 0.706568 13.5245C0.76695 13.2899 0.867752 13.0671 1.00464 12.8657C1.02229 12.8391 1.03741 12.8138 1.03741 12.8138C1.11638 12.6939 1.20623 12.5812 1.30586 12.477C1.56229 12.2207 1.87317 12.0227 2.21646 11.8971C2.28074 11.8731 2.3362 11.8583 2.37338 11.849Z" fill="white"/>
<path d="M23.74 31.1842H14.0089C13.4628 31.1827 12.9396 30.9697 12.5535 30.5917C12.1673 30.2137 11.9497 29.7015 11.9482 29.1669C11.9499 28.6325 12.1676 28.1204 12.5537 27.7425C12.9398 27.3647 13.463 27.1517 14.0089 27.1503H23.74C24.285 27.1561 24.8065 27.3684 25.1951 27.7425C25.3866 27.9293 25.5384 28.1514 25.642 28.3958C25.7456 28.6402 25.7989 28.9023 25.7988 29.1669C25.7973 29.7012 25.58 30.2131 25.1943 30.5911C24.8086 30.969 24.2858 31.1822 23.74 31.1842Z" fill="white"/>
<path d="M21.5413 31.9012H16.205C15.259 31.9012 14.4922 32.652 14.4922 33.578C14.4922 34.504 15.259 35.2547 16.205 35.2547H21.5413C22.4873 35.2547 23.2541 34.504 23.2541 33.578C23.2541 32.652 22.4873 31.9012 21.5413 31.9012Z" fill="white"/>
</svg>
