<svg width="24" height="24" viewBox="0 0 24 24" fill="none" xmlns="http://www.w3.org/2000/svg">
<path d="M4.5818 2H12.4228C13.1076 2 13.7643 2.28446 14.2485 2.79081C14.7326 3.29716 15.0046 3.98392 15.0046 4.7V7.8C15.0046 8.06522 14.9039 8.31957 14.7246 8.50711C14.5452 8.69464 14.302 8.8 14.0484 8.8C13.7948 8.8 13.5516 8.69464 13.3723 8.50711C13.1929 8.31957 13.0922 8.06522 13.0922 7.8V4.7C13.0913 4.51464 13.0205 4.33715 12.8951 4.20608C12.7698 4.07501 12.6001 4.00096 12.4228 4H4.5818C4.40456 4.00096 4.23484 4.07501 4.10951 4.20608C3.98418 4.33715 3.91336 4.51464 3.91245 4.7V19.2991C3.91336 19.4844 3.98418 19.6619 4.10951 19.793C4.23484 19.9241 4.40456 19.9981 4.5818 19.9991H12.4228C12.6001 19.9981 12.7698 19.9241 12.8951 19.793C13.0205 19.6619 13.0913 19.4844 13.0922 19.2991V15.7991C13.0922 15.5339 13.1929 15.2795 13.3723 15.092C13.5516 14.9044 13.7948 14.7991 14.0484 14.7991C14.302 14.7991 14.5452 14.9044 14.7246 15.092C14.9039 15.2795 15.0046 15.5339 15.0046 15.7991V19.2991C15.0048 19.6537 14.9381 20.0049 14.8084 20.3326C14.6787 20.6603 14.4885 20.9581 14.2488 21.2089C14.009 21.4597 13.7244 21.6586 13.4111 21.7944C13.0978 21.9301 12.762 22 12.4228 22H4.5818C4.24268 22 3.90689 21.9301 3.59359 21.7944C3.28029 21.6586 2.99564 21.4597 2.75589 21.2089C2.51613 20.9581 2.32597 20.6603 2.19628 20.3326C2.06658 20.0049 1.99989 19.6537 2 19.2991V4.7C2 3.98392 2.27201 3.29716 2.75619 2.79081C3.24037 2.28446 3.89707 2 4.5818 2V2Z" fill="white"/>
<path d="M21.2221 12.8037C21.2492 12.7976 21.2759 12.7897 21.3021 12.78L21.4012 12.7482L21.4881 12.6964L21.5646 12.6564C21.6675 12.5839 21.7561 12.4913 21.8254 12.3837L21.8636 12.3037L21.9132 12.2128L21.9436 12.1091C21.9589 12.0769 21.9717 12.0435 21.9819 12.0091C22.0058 11.877 22.0058 11.7413 21.9819 11.6091C21.9761 11.5808 21.9685 11.5528 21.9593 11.5255L21.9288 11.4219L21.8793 11.331L21.841 11.251C21.8049 11.1977 21.7654 11.1469 21.7228 11.0991L18.2074 7.42368C18.122 7.31829 18.0166 7.23255 17.8979 7.17188C17.7792 7.11121 17.6498 7.07692 17.5178 7.07118C17.3857 7.06543 17.254 7.08835 17.1309 7.1385C17.0078 7.18864 16.896 7.26492 16.8025 7.36252C16.709 7.46012 16.6358 7.57693 16.5876 7.70558C16.5394 7.83422 16.5173 7.97191 16.5225 8.10997C16.5277 8.24802 16.5603 8.38345 16.6181 8.50769C16.6759 8.63194 16.7576 8.74232 16.8582 8.83186L18.7211 10.8037H7.64372C7.51815 10.8037 7.39381 10.8295 7.27779 10.8798C7.16178 10.9301 7.05637 11.0037 6.96757 11.0966C6.87878 11.1894 6.80834 11.2997 6.76029 11.421C6.71223 11.5423 6.6875 11.6724 6.6875 11.8037C6.6875 11.935 6.71223 12.065 6.76029 12.1864C6.80834 12.3077 6.87878 12.4179 6.96757 12.5108C7.05637 12.6036 7.16178 12.6773 7.27779 12.7276C7.39381 12.7778 7.51815 12.8037 7.64372 12.8037H21.0309C21.0945 12.8098 21.1585 12.8098 21.2221 12.8037Z" fill="white"/>
<path d="M18.4388 13.8914L16.7699 15.6366C16.3965 16.0272 16.3965 16.6603 16.7699 17.0509C17.1433 17.4414 17.7488 17.4414 18.1222 17.0509L19.7911 15.3056C20.1645 14.9151 20.1645 14.2819 19.7911 13.8914C19.4176 13.5009 18.8122 13.5009 18.4388 13.8914Z" fill="#F1C218"/>
</svg>
