<svg width="83" height="81" viewBox="0 0 83 81" fill="none" xmlns="http://www.w3.org/2000/svg">
<path d="M56.9444 62.6187C57.7956 62.6187 58.6119 62.2896 59.2143 61.7037C59.8166 61.1177 60.1557 60.3229 60.1571 59.4936V25.0481H66.5841C69.1265 25.0481 71.6117 24.3136 73.7255 22.9375C75.8394 21.5613 77.4869 19.6053 78.4598 17.3168C79.4327 15.0284 79.6873 12.5102 79.1913 10.0808C78.6953 7.65132 77.4711 5.41974 75.6734 3.66822C73.8757 1.9167 71.5853 0.723896 69.0919 0.240652C66.5984 -0.242592 64.0139 0.00542649 61.6651 0.953344C59.3163 1.90126 57.3087 3.5065 55.8963 5.56608C54.4839 7.62565 53.73 10.047 53.73 12.5241V18.7861H47.3116V12.5241C47.3116 10.047 46.5577 7.62565 45.1453 5.56608C43.7328 3.5065 41.7253 1.90126 39.3765 0.953344C37.0277 0.00542649 34.4432 -0.242592 31.9497 0.240652C29.4562 0.723896 27.1659 1.9167 25.3682 3.66822C23.5705 5.41974 22.3462 7.65132 21.8503 10.0808C21.3543 12.5102 21.6088 15.0284 22.5817 17.3168C23.5546 19.6053 25.2022 21.5613 27.316 22.9375C29.4299 24.3136 31.9151 25.0481 34.4574 25.0481H40.8845V59.4936C40.904 60.3114 41.2511 61.0893 41.8517 61.6609C42.4522 62.2326 43.2585 62.5527 44.098 62.5527C44.9376 62.5527 45.7439 62.2326 46.3444 61.6609C46.945 61.0893 47.2921 60.3114 47.3116 59.4936V25.0481H53.73V59.4936C53.7318 60.323 54.0713 61.1179 54.6739 61.7038C55.2765 62.2896 56.0931 62.6187 56.9444 62.6187ZM60.1571 12.5241C60.1571 11.2856 60.534 10.0749 61.2402 9.04508C61.9464 8.01529 62.9502 7.21267 64.1246 6.73871C65.299 6.26475 66.5913 6.14074 67.838 6.38236C69.0847 6.62399 70.2299 7.22039 71.1288 8.09615C72.0276 8.97191 72.6397 10.0877 72.8877 11.3024C73.1357 12.5171 73.0084 13.7762 72.522 14.9205C72.0355 16.0647 71.2118 17.0427 70.1548 17.7308C69.0979 18.4188 67.8553 18.7861 66.5841 18.7861H60.1571V12.5241ZM40.8776 18.7861H34.4505C33.1793 18.7861 31.9367 18.4188 30.8798 17.7308C29.8229 17.0427 28.9991 16.0647 28.5126 14.9205C28.0262 13.7762 27.8989 12.5171 28.1469 11.3024C28.3949 10.0877 29.007 8.97191 29.9059 8.09615C30.8047 7.22039 31.9499 6.62399 33.1966 6.38236C34.4434 6.14074 35.7356 6.26475 36.91 6.73871C38.0844 7.21267 39.0882 8.01529 39.7944 9.04508C40.5006 10.0749 40.8776 11.2856 40.8776 12.5241V18.7861Z" fill="#100F0D"/>
<path d="M86.4084 51.259C85.3624 50.0037 83.8487 49.2032 82.1984 49.0328C80.5481 48.8624 78.8958 49.3359 77.603 50.3497C70.0664 56.3016 60.6559 59.5431 50.9545 59.5289C42.9221 59.5291 35.0548 57.3069 28.268 53.1209C21.4812 48.935 16.0539 42.9574 12.6175 35.8836C12.2543 35.1322 11.7417 34.4584 11.1096 33.9011C10.4774 33.3439 9.73813 32.9142 8.93452 32.6369C8.1309 32.3597 7.27885 32.2404 6.42763 32.2859C5.5764 32.3315 4.74288 32.5409 3.97524 32.9022C2.49134 33.5998 1.34883 34.8384 0.794724 36.3502C0.240614 37.862 0.319417 39.5255 1.0141 40.9811C9.81078 59.2636 28.8682 71.9246 50.9632 71.9246C63.5855 71.9431 75.8288 67.7231 85.6312 59.9751C86.2689 59.4675 86.7976 58.8424 87.1872 58.1355C87.5768 57.4287 87.8196 56.654 87.9018 55.8557C87.984 55.0574 87.9039 54.2511 87.6661 53.483C87.4283 52.7148 87.0374 51.9999 86.5159 51.379L86.4084 51.259Z" fill="#100F0D"/>
<path d="M12.0725 34.9869C12.0725 34.9869 9.02638 50.3014 21.2838 63.4931C21.2838 63.4931 9.51383 57.2801 1.79613 42.5622C1.79613 42.5622 -1.93348 37.8297 2.71726 33.6838C3.45542 33.067 4.33464 32.6317 5.28115 32.4145C5.85018 32.2914 6.43399 32.2459 7.01586 32.2793C7.65425 32.3044 8.28569 32.4182 8.89107 32.6173C9.61086 32.8654 10.2811 33.2331 10.8721 33.7041C11.3305 34.0763 11.7344 34.5079 12.0725 34.9869Z" fill="#100F0D"/>
<path d="M5.0972 32.4629C5.16467 35.7987 5.66714 39.1126 6.59251 42.325C9.8312 53.5273 17.4205 60.4502 21.282 63.4976C20.5621 63.0953 19.5941 62.524 18.4978 61.7702C17.2511 60.9033 16.0562 59.9677 14.9191 58.9679C13.337 57.6158 12.1887 56.4952 11.7047 56.0119C11.0698 55.3797 9.87977 54.1628 8.5163 52.5504C6.72943 50.4307 5.10595 48.1851 3.65913 45.832C3.333 45.3182 3.00803 44.7898 2.68422 44.2467C2.29449 43.6022 1.92616 42.9683 1.57922 42.3452C1.12294 41.6721 0.785238 40.9295 0.580027 40.148C0.287296 39.1391 0.262821 38.0741 0.508904 37.0534C0.675119 36.4106 0.9526 35.8002 1.32942 35.2483C1.37799 35.1756 1.41962 35.1063 1.41962 35.1063C1.63702 34.7777 1.88435 34.4688 2.15861 34.1835C2.86449 33.4812 3.72026 32.9388 4.66525 32.5947C4.84219 32.5288 4.99485 32.4882 5.0972 32.4629Z" fill="#100F0D"/>
<path d="M63.9127 85.4369H37.1254C35.6222 85.4329 34.1818 84.8493 33.1189 83.8137C32.056 82.7781 31.457 81.3747 31.4529 79.9101C31.4575 78.4459 32.0566 77.0429 33.1195 76.0076C34.1823 74.9724 35.6225 74.389 37.1254 74.385H63.9127C65.4129 74.401 66.8485 74.9825 67.9181 76.0076C68.4451 76.5195 68.8632 77.1277 69.1483 77.7974C69.4335 78.4671 69.5802 79.1851 69.5799 79.9101C69.5758 81.3738 68.9776 82.7765 67.9158 83.812C66.854 84.8474 65.4149 85.4316 63.9127 85.4369Z" fill="#100F0D"/>
</svg>
