<svg width="105" height="105" viewBox="0 0 105 105" fill="none" xmlns="http://www.w3.org/2000/svg">
<path d="M-1.46102 118.771C-0.629183 119.603 0.500965 120.068 1.6813 120.065C2.86163 120.062 3.99567 119.591 4.83443 118.755L39.6171 83.9721L45.8983 90.2534C48.3829 92.738 51.5534 94.4251 55.0089 95.1013C58.4645 95.7775 62.0498 95.4126 65.3115 94.0525C68.5732 92.6924 71.3648 90.3984 73.3333 87.4605C75.3017 84.5225 76.3587 81.0726 76.3705 77.5471C76.3823 74.0215 75.3484 70.5786 73.3995 67.6538C71.4506 64.7289 68.6742 62.4535 65.4216 61.1152C62.1689 59.7769 58.5859 59.4359 55.1258 60.1353C51.6657 60.8346 48.4838 62.543 45.9826 65.0443L39.6592 71.3676L33.3865 65.0949L39.7098 58.7715C42.2111 56.2702 43.9194 53.0884 44.6188 49.6283C45.3182 46.1681 44.9771 42.5852 43.6389 39.3325C42.3006 36.0798 40.0251 33.3035 37.1003 31.3546C34.1754 29.4057 30.7326 28.3718 27.207 28.3836C23.6815 28.3954 20.2316 29.4523 17.2936 31.4208C14.3557 33.3893 12.0616 36.1809 10.7016 39.4426C9.34152 42.7043 8.97654 46.2896 9.65278 49.7451C10.329 53.2007 12.0161 56.3712 14.5007 58.8558L20.7819 65.137L-14.0007 99.9197C-14.8075 100.765 -15.2537 101.889 -15.2441 103.053C-15.2345 104.218 -14.7697 105.329 -13.9492 106.149C-13.1286 106.97 -12.0175 107.435 -10.8533 107.444C-9.68915 107.454 -8.56437 107.008 -7.7195 106.201L27.0632 71.4182L33.3359 77.6909L-1.44677 112.474C-2.28255 113.313 -2.75343 114.447 -2.7561 115.628C-2.75877 116.808 -2.29301 117.939 -1.46102 118.771V118.771ZM52.2638 71.3255C53.5144 70.0748 55.1053 69.2207 56.8354 68.871C58.5655 68.5213 60.3569 68.6918 61.9833 69.361C63.6096 70.0301 64.9978 71.1678 65.9722 72.6302C66.9467 74.0927 67.4636 75.8141 67.4577 77.5769C67.4518 79.3397 66.9234 81.0646 65.9391 82.5336C64.9549 84.0025 63.5591 85.1496 61.9282 85.8296C60.2974 86.5096 58.5047 86.6921 56.777 86.354C55.0492 86.0159 53.4639 85.1723 52.2216 83.93L45.9404 77.6488L52.2638 71.3255ZM27.0985 58.8069L20.8173 52.5257C19.575 51.2834 18.7314 49.6981 18.3933 47.9703C18.0552 46.2426 18.2377 44.4499 18.9177 42.8191C19.5978 41.1882 20.7448 39.7924 22.2137 38.8082C23.6827 37.8239 25.4077 37.2955 27.1704 37.2896C28.9332 37.2837 30.6547 37.8006 32.1171 38.7751C33.5795 39.7495 34.7172 41.1377 35.3864 42.764C36.0555 44.3904 36.226 46.1818 35.8763 47.9119C35.5266 49.642 34.6725 51.2329 33.4218 52.4835L27.0985 58.8069Z" fill="#100F0D"/>
<path d="M38.8882 135.875C39.1336 133.585 38.4625 131.298 37.0218 129.513C35.5811 127.728 33.4881 126.591 31.2009 126.351C17.8252 124.996 5.35509 119.072 -4.11189 109.577C-11.9621 101.727 -17.4069 91.7942 -19.8127 80.9345C-22.2186 70.0748 -21.4866 58.7345 -17.7019 48.2331C-17.2982 47.1193 -17.1187 45.938 -17.1738 44.7574C-17.2289 43.5769 -17.5175 42.4206 -18.0229 41.3552C-18.5283 40.2899 -19.2406 39.3367 -20.1184 38.5508C-20.9963 37.7649 -22.0224 37.1618 -23.1375 36.7764C-25.2921 36.0306 -27.6594 36.1647 -29.7275 37.1498C-31.7957 38.1348 -33.3985 39.8917 -34.1894 42.0405C-44.0538 69.0989 -38.2138 100.509 -16.6204 122.102C-4.30329 134.457 11.9235 142.161 29.3272 143.917C30.4631 144.028 31.611 143.913 32.7055 143.58C33.8001 143.247 34.8196 142.702 35.7061 141.976C36.5925 141.25 37.3284 140.358 37.8716 139.35C38.4149 138.342 38.7549 137.238 38.8722 136.101L38.8882 135.875Z" fill="#161619"/>
</svg>
