<svg id="Layer_6" height="512" viewBox="0 0 32 32" width="512" xmlns="http://www.w3.org/2000/svg" xmlns:xlink="http://www.w3.org/1999/xlink" data-name="Layer 6"><linearGradient id="linear-gradient" gradientUnits="userSpaceOnUse" x1="16" x2="16" y1="28.24"><stop offset="0" stop-color="#f6f0ea"/><stop offset="1" stop-color="#f1dfd1"/></linearGradient><linearGradient id="linear-gradient-2" gradientUnits="userSpaceOnUse" x1="30.84" x2="17.79" y1="28.97" y2="21.43"><stop offset="0" stop-color="#feb692"/><stop offset="1" stop-color="#ea5455"/></linearGradient><linearGradient id="linear-gradient-3" x1="21.48" x2="6.15" xlink:href="#linear-gradient-2" y1="37.25" y2="21.92"/><linearGradient id="linear-gradient-4" x1="25.59" x2="4.39" xlink:href="#linear-gradient-2" y1="34.17" y2="21.93"/><linearGradient id="linear-gradient-5" x1="23.69" x2="19.73" xlink:href="#linear-gradient-2" y1="11.43" y2="9.14"/><path d="m32 6.86v18.28a6.67 6.67 0 0 1 -.71 3l-3.86-4.24-3.19-3.5c-.86-.94-2.15-1.61-3.23-1.18a21.61 21.61 0 0 0 -3.29 2.33l-2.72-3a3.69 3.69 0 0 0 -5.47 0l-4.96 5.45-3.83 4.24a6.7 6.7 0 0 1 -.74-3.1v-18.28a6.86 6.86 0 0 1 6.86-6.86h18.28a6.86 6.86 0 0 1 6.86 6.86z" fill="url(#linear-gradient)"/><path d="m31.29 28.16a6.84 6.84 0 0 1 -4.29 3.59l-7-7.75-2.23-2.45a21.61 21.61 0 0 1 3.23-2.33c1.09-.43 2.38.24 3.23 1.18l3.19 3.52z" fill="url(#linear-gradient-2)"/><path d="m27 31.75a6.94 6.94 0 0 1 -1.84.25h-18.3a6.85 6.85 0 0 1 -6.12-3.76l3.83-4.24 4.95-5.44a3.69 3.69 0 0 1 5.47 0l2.72 3 2.23 2.44z" fill="url(#linear-gradient-3)"/><path d="m27 31.75a6.94 6.94 0 0 1 -1.84.25h-18.3a6.85 6.85 0 0 1 -6.12-3.76l3.83-4.24 4.95-5.44a3.69 3.69 0 0 1 5.47 0l2.72 3 2.23 2.44z" fill="url(#linear-gradient-4)"/><circle cx="21.71" cy="10.29" fill="url(#linear-gradient-5)" r="2.29"/></svg>