<svg width="26" height="26" viewBox="0 0 26 26" fill="none" xmlns="http://www.w3.org/2000/svg">
<g clip-path="url(#clip0_1179_2700)">
<path d="M0.541667 18.4166C0.242667 18.4166 0 18.6593 0 18.9583V21.1249C0 22.6178 1.21442 23.8333 2.70833 23.8333H4.875C5.174 23.8333 5.41667 23.5906 5.41667 23.2916C5.41667 22.9926 5.174 22.7499 4.875 22.7499H2.70833C1.81242 22.7499 1.08333 22.0208 1.08333 21.1249V18.9583C1.08333 18.6593 0.840667 18.4166 0.541667 18.4166Z" fill="#575754"/>
<path d="M25.4585 18.4166C25.1595 18.4166 24.9168 18.6593 24.9168 18.9583V21.1249C24.9168 22.0208 24.1877 22.7499 23.2918 22.7499H21.1252C20.8262 22.7499 20.5835 22.9926 20.5835 23.2916C20.5835 23.5906 20.8262 23.8333 21.1252 23.8333H23.2918C24.7857 23.8333 26.0002 22.6178 26.0002 21.1249V18.9583C26.0002 18.6593 25.7575 18.4166 25.4585 18.4166Z" fill="#575754"/>
<path d="M4.875 2.16659H2.70833C1.21442 2.16659 0 3.38209 0 4.87492V7.04159C0 7.34059 0.242667 7.58325 0.541667 7.58325C0.840667 7.58325 1.08333 7.34059 1.08333 7.04159V4.87492C1.08333 3.979 1.81242 3.24992 2.70833 3.24992H4.875C5.174 3.24992 5.41667 3.00725 5.41667 2.70825C5.41667 2.40925 5.174 2.16659 4.875 2.16659Z" fill="#575754"/>
<path d="M23.2918 2.16659H21.1252C20.8262 2.16659 20.5835 2.40925 20.5835 2.70825C20.5835 3.00725 20.8262 3.24992 21.1252 3.24992H23.2918C24.1877 3.24992 24.9168 3.979 24.9168 4.87492V7.04159C24.9168 7.34059 25.1595 7.58325 25.4585 7.58325C25.7575 7.58325 26.0002 7.34059 26.0002 7.04159V4.87492C26.0002 3.38209 24.7857 2.16659 23.2918 2.16659Z" fill="#575754"/>
<path d="M13.0002 6.5C8.82608 6.5 5.2695 9.1195 4.34975 12.8711C4.32808 12.9556 4.32808 13.0444 4.34975 13.1289C5.2695 16.8805 8.82608 19.5 13.0002 19.5C17.1742 19.5 20.7308 16.8805 21.6506 13.1289C21.6722 13.0444 21.6722 12.9556 21.6506 12.8711C20.7308 9.1195 17.1742 6.5 13.0002 6.5ZM5.43416 13C6.28566 9.80417 9.37641 7.58333 13.0002 7.58333C16.6239 7.58333 19.7147 9.80417 20.5662 13C19.7147 16.1958 16.625 18.4167 13.0002 18.4167C9.37533 18.4167 6.28566 16.1958 5.43416 13Z" fill="#575754"/>
<path d="M13 9.75C11.2082 9.75 9.75 11.2082 9.75 13C9.75 14.7918 11.2082 16.25 13 16.25C14.7918 16.25 16.25 14.7918 16.25 13C16.25 11.2082 14.7918 9.75 13 9.75ZM13 15.1667C11.8051 15.1667 10.8333 14.1949 10.8333 13C10.8333 11.8051 11.8051 10.8333 13 10.8333C14.1949 10.8333 15.1667 11.8051 15.1667 13C15.1667 14.1949 14.1949 15.1667 13 15.1667Z" fill="#575754"/>
</g>
<defs>
<clipPath id="clip0_1179_2700">
<rect width="26" height="26" fill="white" transform="matrix(1 0 0 -1 0 26)"/>
</clipPath>
</defs>
</svg>
