<svg width="14" height="18" viewBox="0 0 14 18" fill="none" xmlns="http://www.w3.org/2000/svg">
<path fill-rule="evenodd" clip-rule="evenodd" d="M7.00335 0.666626C4.55833 0.666626 2.57625 2.65716 2.57625 5.1126C2.57625 7.56805 4.55833 9.55858 7.00335 9.55858C9.44837 9.55858 11.4305 7.56805 11.4305 5.1126C11.4305 2.65716 9.44837 0.666626 7.00335 0.666626ZM7.00326 1.87301C8.78484 1.87301 10.2291 3.32342 10.2291 5.1126C10.2291 6.90177 8.78484 8.35219 7.00326 8.35219C5.22168 8.35219 3.77743 6.90177 3.77743 5.1126C3.77743 3.32342 5.22168 1.87301 7.00326 1.87301ZM5.19138 11.3507C4.54328 11.3957 3.88818 11.4882 3.24201 11.6267C1.99482 11.8836 0.997051 12.3969 0.572374 13.2499C0.412197 13.5834 0.331666 13.9406 0.333025 14.3022C0.332544 14.6612 0.412424 15.0189 0.566856 15.346C0.974627 16.1892 1.85618 16.6663 3.04654 16.9308L3.25978 16.9753C3.88841 17.1172 4.54371 17.2127 5.20339 17.2575C5.25958 17.274 5.39349 17.2893 5.53964 17.2967L5.65986 17.3012C5.72167 17.3027 5.79182 17.303 5.89635 17.303C6.84454 17.3552 7.82752 17.34 8.80594 17.2567C9.32734 17.221 9.85225 17.1529 10.3728 17.053L10.7622 16.9721C12.0476 16.7185 13.0101 16.2363 13.4318 15.347C13.7445 14.6867 13.7445 13.9205 13.432 13.2606C13.0114 12.3735 12.0611 11.8953 10.7525 11.6257C10.2391 11.5161 9.71734 11.435 9.1919 11.3832L8.80776 11.3507C7.60462 11.2446 6.39452 11.2446 5.19138 11.3507ZM8.70273 12.5525L8.7133 12.5533C9.31634 12.5957 9.91569 12.6804 10.507 12.8066C11.479 13.0069 12.1387 13.3388 12.3473 13.7789C12.5045 14.1108 12.5045 14.4964 12.3472 14.8286C12.1522 15.2398 11.5598 15.5576 10.7035 15.7517L10.516 15.7914C9.91309 15.926 9.31572 16.0127 8.7144 16.0539C7.78138 16.1332 6.85389 16.1476 5.92874 16.0975L5.60074 16.0919C5.50968 16.0873 5.43294 16.0785 5.36183 16.0642C4.7987 16.0217 4.29199 15.9544 3.79999 15.8569L3.50623 15.7947C2.53119 15.6036 1.86572 15.2702 1.64996 14.8241C1.57447 14.6641 1.53414 14.4835 1.53438 14.3007C1.5337 14.119 1.5735 13.9425 1.65075 13.7815C1.86054 13.3603 2.56576 12.9975 3.48815 12.8075C4.08371 12.6799 4.68278 12.5953 5.28555 12.5533C6.42979 12.4525 7.56954 12.4525 8.70273 12.5525Z" fill="#EDC649"/>
</svg>
