<svg width="24" height="24" viewBox="0 0 24 24" fill="none" xmlns="http://www.w3.org/2000/svg">
<path d="M18.7722 4.00268H18.0038V3.00009C18.0038 2.73485 17.8985 2.48047 17.7109 2.29292C17.5234 2.10537 17.269 2 17.0038 2C16.7385 2 16.4842 2.10537 16.2967 2.29292C16.1091 2.48047 16.0038 2.73485 16.0038 3.00009V3.00009V3.99965H8.00433V3.00009C8.00433 2.73485 7.89897 2.48047 7.71142 2.29292C7.52388 2.10537 7.26956 2 7.00433 2C6.7391 2 6.48472 2.10537 6.29718 2.29292C6.10963 2.48047 6.00427 2.73485 6.00427 3.00009V3.99965H5.23079C4.37384 3.99992 3.55209 4.34055 2.94623 4.94661C2.34037 5.55268 2 6.37454 2 7.23151V18.7681C2 19.6253 2.34046 20.4473 2.94654 21.0534C3.55262 21.6595 4.37465 22 5.23178 22H18.7682C19.6253 22 20.4473 21.6595 21.0534 21.0534C21.6595 20.4473 22 19.6253 22 18.7681V7.23151C21.9992 6.37559 21.6589 5.55497 21.0538 4.94965C20.4487 4.34433 19.6281 4.00375 18.7722 4.00268V4.00268ZM20.004 18.7712C20.004 19.0978 19.8742 19.4111 19.6432 19.6421C19.4122 19.8731 19.0989 20.0029 18.7722 20.0029H5.23079C4.90412 20.0029 4.59084 19.8731 4.35986 19.6421C4.12887 19.4111 3.99907 19.0978 3.99907 18.7712V18.7712V7.23457C3.99907 6.9079 4.12887 6.59461 4.35986 6.36362C4.59084 6.13262 4.90412 6.00285 5.23079 6.00285H5.9992V7.00241C5.9992 7.26765 6.10456 7.52203 6.2921 7.70958C6.47965 7.89713 6.73403 8.00247 6.99926 8.00247C7.26449 8.00247 7.51886 7.89713 7.70641 7.70958C7.89396 7.52203 7.99932 7.26765 7.99932 7.00241V6.00285H15.9987V7.00241C15.9987 7.26765 16.1041 7.52203 16.2916 7.70958C16.4792 7.89713 16.7335 8.00247 16.9987 8.00247C17.2639 8.00247 17.5183 7.89713 17.7059 7.70958C17.8934 7.52203 17.9988 7.26765 17.9988 7.00241V6.00285H18.7672C19.0938 6.00285 19.4071 6.13262 19.6381 6.36362C19.8691 6.59461 19.9989 6.9079 19.9989 7.23457V7.23457L20.004 18.7712Z" fill="white"/>
<path d="M16.6807 11.1447C16.5898 11.0665 16.478 11.0166 16.359 11.0013C16.2401 10.986 16.1193 11.0059 16.0116 11.0585L14.2041 11.9395L12.4747 9.94237C12.4216 9.88141 12.357 9.83148 12.2847 9.79548C12.2123 9.75947 12.1336 9.73809 12.053 9.73252C11.9721 9.72583 11.8907 9.73556 11.8137 9.76117C11.7367 9.78678 11.6656 9.82775 11.6049 9.88154C11.5825 9.90035 11.5615 9.92067 11.542 9.94237L9.81158 11.9395L8.00407 11.0585C7.8963 11.0063 7.77566 10.9867 7.6569 11.0019C7.53813 11.0172 7.42642 11.0667 7.33534 11.1445C7.24427 11.2222 7.17781 11.3248 7.14409 11.4397C7.11037 11.5546 7.11084 11.6768 7.14545 11.7914L8.52208 16.3179C8.5594 16.4451 8.63727 16.5566 8.74377 16.6354C8.85027 16.7143 8.97959 16.7562 9.1121 16.7548H14.9046C15.0371 16.7562 15.1664 16.7143 15.2729 16.6354C15.3794 16.5566 15.4573 16.4451 15.4946 16.3179L16.8712 11.7914C16.906 11.6768 16.9065 11.5545 16.8726 11.4396C16.8387 11.3247 16.772 11.2221 16.6807 11.1447V11.1447ZM15.2807 12.7839L14.4484 15.5211H9.57028L8.73801 12.7839L9.70009 13.2523C9.82196 13.3116 9.95991 13.3291 10.0927 13.3022C10.2256 13.2752 10.3459 13.2053 10.435 13.1033L12.0104 11.2866L13.5857 13.1033C13.6748 13.2053 13.7951 13.2752 13.928 13.3022C14.0608 13.3291 14.1988 13.3116 14.3207 13.2523L15.2807 12.7839Z" fill="#F1C218"/>
</svg>
