<svg width="24" height="24" viewBox="0 0 24 24" fill="none" xmlns="http://www.w3.org/2000/svg">
<path d="M12.0363 22C11.498 22.0005 10.9634 21.9079 10.4535 21.7258L6.83512 20.4274C6.18645 20.2135 5.62786 19.7694 5.2541 19.1703C4.88033 18.5712 4.71438 17.8542 4.78447 17.1407L5.08641 14.4349C5.11639 14.2236 5.22376 14.0331 5.38544 13.9044C5.54712 13.7758 5.75018 13.7193 5.95092 13.7471C6.0499 13.7553 6.14634 13.7842 6.23467 13.832C6.32299 13.8799 6.40146 13.9457 6.46548 14.0258C6.52949 14.1059 6.57782 14.1986 6.60763 14.2986C6.63745 14.3985 6.64816 14.5037 6.63917 14.6081L6.3382 17.3139C6.30324 17.6705 6.38617 18.0288 6.57295 18.3283C6.75974 18.6277 7.03884 18.8497 7.36301 18.9567L10.9814 20.2552C11.6465 20.4918 12.3658 20.4987 13.0349 20.275L17.0058 18.9162C17.1857 18.8533 17.3539 18.7579 17.5028 18.6341C17.6619 18.4981 17.8638 18.4306 18.0681 18.4451C18.2724 18.4596 18.464 18.555 18.6045 18.7123C18.6713 18.7883 18.7225 18.8781 18.755 18.976C18.7874 19.0739 18.8003 19.1778 18.7929 19.2812C18.7855 19.3846 18.758 19.4853 18.712 19.5769C18.6661 19.6686 18.6026 19.7492 18.5257 19.8138L18.5201 19.8187C18.2236 20.0682 17.8877 20.2609 17.5281 20.3878L13.5365 21.7536C13.0514 21.9166 12.5453 21.9994 12.0363 21.999V22ZM14.04 13.9529L14.9955 13.4858C15.0903 13.443 15.1757 13.3801 15.2464 13.3009C15.3172 13.2218 15.3716 13.1281 15.4065 13.0257C15.4414 12.9233 15.4559 12.8144 15.4491 12.7058C15.4424 12.5972 15.4145 12.4913 15.3672 12.3946C15.3199 12.2979 15.2542 12.2126 15.1743 12.1439C15.0943 12.0752 15.0019 12.0246 14.9026 11.9953C14.8033 11.966 14.6994 11.9586 14.5973 11.9736C14.4952 11.9886 14.3971 12.0256 14.3091 12.0824L13.3546 12.5486C12.9285 12.7568 12.4646 12.8647 11.995 12.8647C11.5254 12.8647 11.0616 12.7568 10.6355 12.5486L4.33911 9.48058C4.17706 9.4064 4.03112 9.29801 3.91023 9.16208C3.78934 9.02614 3.69606 8.86554 3.63616 8.69015C3.57626 8.51476 3.55096 8.32828 3.56188 8.1422C3.57279 7.95612 3.61968 7.77436 3.69963 7.60811C3.83902 7.32773 4.06215 7.10371 4.33442 6.97076L10.6261 3.88298C11.0542 3.67228 11.5208 3.56309 11.9932 3.56309C12.4655 3.56309 12.9321 3.67228 13.3602 3.88298L19.6519 6.97076C19.8732 7.07091 20.0641 7.23338 20.2038 7.4404C20.3435 7.64742 20.4266 7.89101 20.444 8.14452C20.4613 8.39804 20.4122 8.65169 20.3021 8.87774C20.192 9.10378 20.0251 9.29351 19.8197 9.42615C19.7336 9.47649 19.6582 9.54499 19.5982 9.62741C19.5383 9.70983 19.495 9.80439 19.4712 9.90521C19.4473 10.006 19.4434 10.111 19.4597 10.2134C19.4759 10.3159 19.512 10.4138 19.5656 10.5009C19.681 10.6793 19.8563 10.8047 20.056 10.8518C20.2556 10.8988 20.4648 10.864 20.6411 10.7543L20.6505 10.7484C21.0872 10.4739 21.4439 10.0775 21.681 9.60287C21.9181 9.12826 22.0266 8.59379 21.9945 8.0583C21.9624 7.5228 21.791 7.00704 21.4991 6.56774C21.2072 6.12844 20.8062 5.78264 20.3401 5.5684L14.0484 2.4806C13.4048 2.16403 12.7033 2 11.9932 2C11.283 2 10.5815 2.16403 9.93782 2.4806L3.64618 5.5684C3.30344 5.72589 2.99486 5.95574 2.73943 6.2438C2.484 6.53187 2.28711 6.87207 2.1609 7.24345C2.03468 7.61483 1.98181 8.00953 2.00552 8.40328C2.02923 8.79704 2.12902 9.18152 2.29876 9.53304C2.59783 10.1312 3.07678 10.6074 3.66025 10.8869L9.95659 13.9549C10.597 14.2674 11.2941 14.4292 11.9997 14.4292C12.7052 14.4292 13.4024 14.2674 14.0428 13.9549L14.04 13.9529Z" fill="white"/>
<path d="M16.8222 9.38255L13.1766 7.33887C13.1176 7.03251 12.9504 6.76132 12.7089 6.58033C12.4674 6.39934 12.1697 6.32211 11.8762 6.36429C11.5827 6.40648 11.3155 6.56492 11.1286 6.80748C10.9418 7.05005 10.8493 7.35856 10.8701 7.67042C10.8606 7.87658 10.8994 8.08203 10.983 8.26862C11.0666 8.45521 11.1925 8.61719 11.3495 8.74025C11.5065 8.86331 11.6898 8.94366 11.8832 8.97421C12.0766 9.00477 12.2741 8.98458 12.4584 8.91542L16.1312 10.9749C16.3998 11.1317 16.6229 11.3628 16.7764 11.6433C16.9299 11.9239 17.008 12.2434 17.0023 12.5673V16.6824C16.9948 16.7955 17.0095 16.9089 17.0454 17.0158C17.0813 17.1226 17.1376 17.2205 17.2109 17.3033C17.2841 17.3862 17.3728 17.4523 17.4713 17.4975C17.5697 17.5426 17.6759 17.5659 17.7833 17.5659C17.8907 17.5659 17.9969 17.5426 18.0954 17.4975C18.1939 17.4523 18.2825 17.3862 18.3558 17.3033C18.4291 17.2205 18.4854 17.1226 18.5212 17.0158C18.5571 16.9089 18.5718 16.7955 18.5644 16.6824V12.5673C18.576 11.9193 18.42 11.2802 18.113 10.7188C17.806 10.1574 17.3597 9.69508 16.8222 9.38155V9.38255Z" fill="#F1C218"/>
</svg>
