<svg width="20" height="20" viewBox="0 0 20 20" fill="none" xmlns="http://www.w3.org/2000/svg">
<path d="M18.8982 17.5973L15.0161 13.716C14.8252 13.5259 14.5668 13.4191 14.2974 13.4191C14.028 13.4191 13.7695 13.5259 13.5787 13.716C12.5557 14.7049 11.2336 15.3266 9.81934 15.4837C8.40512 15.6408 6.97872 15.3244 5.76361 14.5841C4.54849 13.8438 3.61332 12.7215 3.10458 11.3929C2.59585 10.0643 2.5423 8.60447 2.95232 7.24217C3.36234 5.87987 4.21277 4.69204 5.37038 3.86476C6.52799 3.03748 7.92738 2.61749 9.34931 2.67059C10.7712 2.7237 12.1354 3.24688 13.2281 4.1582C14.3207 5.06951 15.0801 6.31746 15.3874 7.70655C15.6075 8.7143 15.5848 9.75994 15.3212 10.7572C15.2901 10.874 15.2822 10.9958 15.2982 11.1156C15.3141 11.2355 15.3535 11.351 15.4141 11.4556C15.4747 11.5602 15.5553 11.6518 15.6513 11.7253C15.7473 11.7988 15.8569 11.8526 15.9737 11.8837C16.2097 11.9466 16.4609 11.9132 16.6723 11.7909C16.8836 11.6685 17.0376 11.4672 17.1005 11.2313C17.607 9.32809 17.4187 7.30669 16.5695 5.52965C15.7203 3.7526 14.2656 2.33616 12.4664 1.53434C10.6672 0.732512 8.64114 0.59776 6.75155 1.15424C4.86196 1.71073 3.23247 2.92205 2.15529 4.57097C1.07811 6.21989 0.623718 8.19855 0.873596 10.1521C1.12347 12.1057 2.06127 13.9063 3.51882 15.2311C4.97637 16.556 6.85831 17.3183 8.82716 17.3815C10.796 17.4446 12.723 16.8045 14.2624 15.5758L17.5968 18.9058C17.6822 18.9913 17.7836 19.0592 17.8952 19.1055C18.0069 19.1519 18.1266 19.1757 18.2475 19.1757C18.3684 19.1757 18.4881 19.1519 18.5997 19.1055C18.7114 19.0592 18.8128 18.9913 18.8982 18.9058C18.9849 18.8203 19.0537 18.7184 19.1007 18.6061C19.1477 18.4938 19.1719 18.3733 19.1719 18.2515C19.1719 18.1298 19.1477 18.0093 19.1007 17.8969C19.0537 17.7846 18.9849 17.6828 18.8982 17.5973Z" fill="white"/>
<path d="M11.862 11.8598C11.7151 11.7234 11.5271 11.6396 11.3275 11.6217C11.1279 11.6037 10.928 11.6526 10.7591 11.7606C10.2825 12.0546 9.73577 12.2155 9.17584 12.2265C8.61591 12.2374 8.06328 12.0981 7.5755 11.823C7.41014 11.7266 7.21797 11.6862 7.02777 11.7081C6.83757 11.73 6.65957 11.8129 6.52042 11.9443L6.46528 11.9958C6.36655 12.0898 6.29086 12.2054 6.24412 12.3335C6.19737 12.4615 6.18082 12.5987 6.19576 12.7342C6.21071 12.8697 6.25673 12.9999 6.33026 13.1148C6.40379 13.2296 6.50283 13.3259 6.61968 13.3961C7.4056 13.8492 8.30035 14.079 9.20737 14.0609C10.1144 14.0428 10.9992 13.7773 11.7664 13.2932C11.8785 13.222 11.9731 13.1265 12.0433 13.0138C12.1135 12.9011 12.1575 12.7741 12.172 12.6421C12.1864 12.5101 12.1711 12.3766 12.1269 12.2513C12.0828 12.1261 12.0111 12.0124 11.9171 11.9186L11.862 11.8598Z" fill="#F1C218"/>
</svg>
