<svg width="22" height="16" viewBox="0 0 22 16" fill="none" xmlns="http://www.w3.org/2000/svg">
<path d="M11.3555 10.3677L16.1222 6.62235C16.2428 6.54927 16.3474 6.45374 16.4299 6.34126C16.5124 6.22877 16.5713 6.10154 16.6031 5.96688C16.6349 5.83221 16.639 5.69277 16.6153 5.55654C16.5915 5.42032 16.5403 5.29001 16.4645 5.17309C16.3126 4.93645 16.0704 4.76806 15.7909 4.70487C15.5114 4.64168 15.2176 4.68886 14.9739 4.83605L10.2072 8.58138C10.0862 8.65412 9.98126 8.7494 9.89831 8.86173C9.81535 8.97406 9.75606 9.10122 9.72385 9.23591C9.69163 9.3706 9.68712 9.51015 9.71058 9.64654C9.73403 9.78293 9.785 9.91347 9.86053 10.0306C9.93536 10.1488 10.0336 10.2514 10.1494 10.3324C10.2653 10.4134 10.3966 10.4713 10.5357 10.5026C10.6747 10.534 10.8188 10.5382 10.9595 10.515C11.1002 10.4919 11.2348 10.4418 11.3555 10.3677Z" fill="#F1C218"/>
<path d="M11.3554 8.58138L6.58874 4.83605C6.34502 4.68886 6.05118 4.64168 5.77172 4.70487C5.49226 4.76806 5.24999 4.93645 5.09808 5.17309C5.02235 5.29001 4.97112 5.42032 4.94734 5.55654C4.92356 5.69277 4.92769 5.83221 4.9595 5.96688C4.99131 6.10154 5.05017 6.22877 5.1327 6.34126C5.21523 6.45374 5.3198 6.54927 5.44041 6.62235L10.2071 10.3677C10.4502 10.5002 10.7365 10.5365 11.0064 10.4691C11.2763 10.4016 11.5091 10.2357 11.6565 10.0056C11.8038 9.77563 11.8542 9.49927 11.7974 9.23401C11.7405 8.96876 11.5806 8.73501 11.3511 8.58138H11.3554Z" fill="white"/>
<path d="M18.2714 0.416626H3.72875C2.78405 0.416626 1.87804 0.781483 1.21003 1.43093C0.542029 2.08038 0.166748 2.96122 0.166748 3.87968L0.166748 12.1202C0.166748 13.0387 0.542029 13.9195 1.21003 14.569C1.87804 15.2184 2.78405 15.5833 3.72875 15.5833H18.2714C19.2161 15.5833 20.1221 15.2184 20.7901 14.569C21.4581 13.9195 21.8334 13.0387 21.8334 12.1202V3.87968C21.8334 2.96122 21.4581 2.08038 20.7901 1.43093C20.1221 0.781483 19.2161 0.416626 18.2714 0.416626V0.416626ZM19.6667 12.1202C19.6667 12.48 19.5197 12.8251 19.2581 13.0795C18.9964 13.3339 18.6415 13.4768 18.2714 13.4768H3.72875C3.35868 13.4768 3.00377 13.3339 2.7421 13.0795C2.48042 12.8251 2.33341 12.48 2.33341 12.1202V3.87968C2.33341 3.5199 2.48042 3.17485 2.7421 2.92044C3.00377 2.66603 3.35868 2.52311 3.72875 2.52311H18.2714C18.6415 2.52311 18.9964 2.66603 19.2581 2.92044C19.5197 3.17485 19.6667 3.5199 19.6667 3.87968V12.1202Z" fill="white"/>
</svg>
